<svg width="20" height="23" viewBox="0 0 20 23" fill="inherit" xmlns="http://www.w3.org/2000/svg">
<path d="M19.5819 11.8445C19.8496 12.1123 20 12.4756 20 12.8543C20 13.233 19.8496 13.5963 19.5819 13.8642L11.0109 22.4352C10.8782 22.5681 10.7206 22.6735 10.5471 22.7454C10.3737 22.8174 10.1877 22.8544 9.99992 22.8544C9.81212 22.8544 9.62617 22.8174 9.4527 22.7454C9.27924 22.6735 9.12165 22.5681 8.98898 22.4352L0.417968 13.8642C0.285354 13.7314 0.180187 13.5738 0.108472 13.4004C0.0367569 13.227 -0.000101823 13.0412 2.11263e-07 12.8535C0.000102246 12.6659 0.0371631 12.4801 0.109067 12.3068C0.18097 12.1335 0.286308 11.976 0.419067 11.8434C0.551825 11.7108 0.709404 11.6056 0.882806 11.5339C1.05621 11.4622 1.24204 11.4253 1.42968 11.4254C1.61733 11.4255 1.80312 11.4626 1.97644 11.5345C2.14977 11.6064 2.30723 11.7117 2.43985 11.8445L8.57141 17.976V1.4285C8.57141 1.24091 8.60836 1.05515 8.68015 0.881838C8.75194 0.708524 8.85716 0.551047 8.98981 0.418398C9.12246 0.28575 9.27994 0.180527 9.45325 0.108738C9.62657 0.0369493 9.81232 0 9.99992 0C10.1875 0 10.3733 0.0369493 10.5466 0.108738C10.7199 0.180527 10.8774 0.28575 11.01 0.418398C11.1427 0.551047 11.2479 0.708524 11.3197 0.881838C11.3915 1.05515 11.4284 1.24091 11.4284 1.4285V17.9771L17.56 11.8456C17.6927 11.7127 17.8502 11.6072 18.0237 11.5353C18.1972 11.4634 18.3831 11.4263 18.5709 11.4263C18.7587 11.4263 18.9447 11.4634 19.1181 11.5353C19.2916 11.6072 19.4492 11.7127 19.5819 11.8456V11.8445Z"/>
</svg>
