<svg viewBox="0 0 28 28" fill="none" xmlns="http://www.w3.org/2000/svg">
<g clip-path="url(#clip0_63_454)">
<path d="M14 28C21.732 28 28 21.732 28 14C28 6.26801 21.732 0 14 0C6.26801 0 0 6.26801 0 14C0 21.732 6.26801 28 14 28Z" fill="#366EDD"/>
<path d="M14.0003 23.3334C8.84514 23.3334 4.66699 19.1552 4.66699 14C4.66699 8.84483 8.84514 4.66669 14.0003 4.66669C19.1555 4.66669 23.3337 8.84483 23.3337 14C23.3337 16.4754 22.3503 18.8493 20.6 20.5997C18.8496 22.35 16.4757 23.3334 14.0003 23.3334ZM13.4443 10.5367C12.9336 10.5621 12.4508 10.7774 12.0908 11.1404C11.7308 11.5034 11.5194 11.9879 11.4982 12.4988C11.4982 13.4599 12.086 14.0874 13.3331 14.3496L14.2068 14.5561C15.0568 14.7546 15.4063 15.0406 15.4063 15.5252C15.4063 16.0096 14.7947 16.4863 14.0003 16.4863C13.7181 16.5122 13.4344 16.458 13.1816 16.3302C12.9288 16.2024 12.717 16.006 12.5705 15.7634C12.5271 15.6714 12.4586 15.5935 12.3729 15.5387C12.2872 15.4839 12.1877 15.4544 12.086 15.4536H11.6174C11.5813 15.4603 11.547 15.4741 11.5163 15.4941C11.4855 15.514 11.4591 15.5399 11.4384 15.5702C11.4177 15.6005 11.4032 15.6345 11.3958 15.6705C11.3883 15.7063 11.388 15.7433 11.3949 15.7793C11.5091 16.2452 11.7745 16.6602 12.1497 16.9591C12.5248 17.2581 12.9885 17.4242 13.4681 17.4315V18.0988C13.4681 18.2472 13.5271 18.3897 13.6321 18.4947C13.7372 18.5997 13.8796 18.6588 14.0281 18.6588C14.1766 18.6588 14.3191 18.5997 14.4241 18.4947C14.5291 18.3897 14.5881 18.2472 14.5881 18.0988V17.4236C15.1305 17.4174 15.649 17.1998 16.0333 16.817C16.4176 16.4342 16.6372 15.9165 16.6455 15.3742C16.6455 14.3654 16.0656 13.7856 14.6914 13.4917L13.897 13.3169C13.1028 13.1183 12.7294 12.8562 12.7294 12.4113C12.7294 11.9665 13.206 11.474 14.0003 11.474C14.2505 11.4479 14.5028 11.4948 14.727 11.609C14.9511 11.7232 15.1374 11.8997 15.2633 12.1175C15.3144 12.2262 15.3952 12.3182 15.4964 12.3829C15.5976 12.4476 15.7151 12.4823 15.8352 12.4829H16.2086C16.2934 12.4621 16.3668 12.4088 16.4128 12.3346C16.4589 12.2603 16.474 12.1709 16.4548 12.0857C16.3472 11.6555 16.1065 11.2703 15.767 10.985C15.4275 10.6998 15.0066 10.529 14.5643 10.4971V9.94896C14.5643 9.80041 14.5053 9.658 14.4003 9.553C14.2953 9.44792 14.1528 9.38896 14.0043 9.38896C13.8558 9.38896 13.7133 9.44792 13.6083 9.553C13.5033 9.658 13.4443 9.80041 13.4443 9.94896V10.5367ZM7.00231 14C7.00322 15.4633 7.4638 16.8892 8.31897 18.0764C9.17414 19.2637 10.3807 20.1523 11.7683 20.6167H11.8795C11.9743 20.6167 12.0652 20.5791 12.1323 20.512C12.1992 20.445 12.2369 20.3541 12.2369 20.2593V20.0925C12.2372 19.9447 12.1935 19.8001 12.1115 19.677C12.0295 19.554 11.9128 19.4581 11.7762 19.4015C10.6956 18.9653 9.76999 18.2161 9.11821 17.2501C8.46644 16.2842 8.11823 15.1455 8.11823 13.9802C8.11823 12.8148 8.46644 11.6762 9.11821 10.7102C9.76999 9.74418 10.6956 8.99502 11.7762 8.55892C11.9121 8.50362 12.0286 8.4092 12.1106 8.28755C12.1927 8.16583 12.2366 8.02249 12.2369 7.8758V7.69307C12.2374 7.63943 12.225 7.58646 12.2007 7.53864C12.1764 7.49082 12.1409 7.44958 12.0973 7.4184C12.0535 7.38721 12.0031 7.36702 11.9499 7.35952C11.8968 7.35203 11.8427 7.35746 11.7921 7.37534C10.3988 7.83613 9.18611 8.7242 8.32628 9.91342C7.46649 11.1026 7.00322 12.5325 7.00231 14ZM20.9983 14C20.9957 12.5382 20.5344 11.114 19.6793 9.92835C18.8243 8.74263 17.6186 7.85519 16.2324 7.39123H16.1132C16.0142 7.39123 15.9193 7.43056 15.8493 7.50057C15.7793 7.57059 15.7399 7.66555 15.7399 7.76456V7.88373C15.7431 8.03688 15.7905 8.1859 15.8766 8.31275C15.9625 8.43961 16.0833 8.53885 16.2245 8.59859C17.3025 9.03601 18.2257 9.78524 18.8756 10.7503C19.5255 11.7154 19.8726 12.8524 19.8726 14.0159C19.8726 15.1794 19.5255 16.3165 18.8756 17.2815C18.2257 18.2466 17.3025 18.9958 16.2245 19.4332C16.086 19.4935 15.9676 19.5921 15.8832 19.7173C15.7989 19.8425 15.7519 19.9892 15.7478 20.1402V20.2752C15.7485 20.3341 15.7632 20.392 15.7905 20.4441C15.8178 20.4963 15.857 20.5413 15.9051 20.5754C15.9531 20.6094 16.0085 20.6317 16.0668 20.6402C16.1251 20.6489 16.1845 20.6435 16.2403 20.6247C17.6276 20.1585 18.8334 19.2681 19.6872 18.0793C20.541 16.8906 20.9996 15.4636 20.9983 14Z" fill="white"/>
</g>
<defs>
<clipPath id="clip0_63_454">
<rect width="28" height="28" fill="white"/>
</clipPath>
</defs>
</svg>
