<svg width="29" height="32" fill="none" xmlns="http://www.w3.org/2000/svg"><path d="M25.02 0c1.847 0 3.336 1.516 3.424 3.3V32l-3.515-3.03-1.93-1.785-2.107-1.864.88 2.94H3.336C1.495 28.261 0 26.841 0 24.96V3.307C0 1.523 1.497.004 3.342.004h21.67L25.02 0Zm-8.034 7.577h-.04l-.265.267c2.723.8 4.04 2.05 4.04 2.05-1.755-.891-3.336-1.337-4.917-1.517-1.143-.18-2.285-.085-3.25 0h-.263c-.617 0-1.93.267-3.69.98-.614.271-.966.448-.966.448s1.316-1.336 4.216-2.049l-.177-.18s-2.196-.085-4.567 1.693c0 0-2.37 4.192-2.37 9.36 0 0 1.313 2.32 4.916 2.408 0 0 .525-.71 1.057-1.336-2.023-.624-2.81-1.872-2.81-1.872s.175.088.44.267h.078c.04 0 .058.02.079.04v.008c.02.021.04.04.079.04.433.181.867.36 1.221.533.612.27 1.399.538 2.364.715 1.221.18 2.621.267 4.216 0 .788-.18 1.576-.356 2.364-.713.512-.267 1.142-.534 1.834-.983 0 0-.788 1.248-2.896 1.872a20.28 20.28 0 0 0 1.045 1.333c3.603-.08 5.003-2.4 5.082-2.301 0-5.16-2.384-9.36-2.384-9.36-2.147-1.619-4.156-1.68-4.51-1.68l.073-.027.001.004Zm.22 5.884c.924 0 1.669.8 1.669 1.78 0 .987-.749 1.787-1.668 1.787-.92 0-1.668-.8-1.668-1.779.002-.986.752-1.784 1.668-1.784v-.004Zm-5.966 0c.92 0 1.663.8 1.663 1.78 0 .987-.748 1.787-1.668 1.787-.92 0-1.668-.8-1.668-1.779 0-.986.749-1.784 1.668-1.784l.005-.004Z" fill="#807E98"/></svg>