<svg viewBox="0 0 72 22" fill="none" xmlns="http://www.w3.org/2000/svg"><path d="M66.77 0 51.244 21.804h4.767L71.618 0H66.77Z" fill="#FAFAFD"/><path d="m56.508 0 4.568 6.425-2.384 3.504L51.642 0h4.866Z" fill="url(#a)"/><path d="M67.233 21.805 62.168 14.7l2.384-3.407L72 21.805h-4.767Z" fill="url(#b)"/><path fill-rule="evenodd" clip-rule="evenodd" d="M45.683 0h4.17v21.804h-4.17v-.815A8.582 8.582 0 0 1 41.624 22c-4.669 0-8.454-3.694-8.454-8.25s3.785-8.25 8.454-8.25c1.471 0 2.854.366 4.059 1.01V0ZM41.58 18.38c2.645 0 4.788-2.093 4.788-4.673 0-2.581-2.144-4.673-4.788-4.673-2.645 0-4.789 2.092-4.789 4.672 0 2.581 2.144 4.673 4.789 4.673Z" fill="#FAFAFD"/><path d="m33.585 0-15.51 21.804h4.862L38.432 0h-4.847Z" fill="#FAFAFD"/><path d="m22.94 0 4.867 6.62-2.681 3.699L17.875 0h5.065Z" fill="url(#c)"/><path fill-rule="evenodd" clip-rule="evenodd" d="M12.513 0h4.171v21.804h-4.17v-.815A8.582 8.582 0 0 1 8.453 22C3.786 22 0 18.306 0 13.75S3.785 5.5 8.455 5.5c1.47 0 2.854.366 4.058 1.01V0ZM8.41 18.38c2.645 0 4.789-2.093 4.789-4.673 0-2.581-2.144-4.673-4.789-4.673-2.644 0-4.788 2.092-4.788 4.672 0 2.581 2.144 4.673 4.788 4.673Z" fill="#FAFAFD"/><defs><linearGradient id="a" x1="55.415" y1="1.363" x2="61.8" y2="9.227" gradientUnits="userSpaceOnUse"><stop stop-color="#fff"/><stop offset="1" stop-color="#fff" stop-opacity=".55"/></linearGradient><linearGradient id="b" x1="68.326" y1="20.15" x2="60.497" y2="9.383" gradientUnits="userSpaceOnUse"><stop stop-color="#6966FF"/><stop offset="1" stop-color="#6966FF" stop-opacity=".36"/></linearGradient><linearGradient id="c" x1="21.848" y1="1.416" x2="28.466" y2="9.672" gradientUnits="userSpaceOnUse"><stop stop-color="#fff"/><stop offset="1" stop-color="#fff" stop-opacity=".55"/></linearGradient></defs></svg>