<svg width="36" height="30" fill="none" xmlns="http://www.w3.org/2000/svg"><path fill-rule="evenodd" clip-rule="evenodd" d="M35.444 3.93c-1.282.58-2.67.982-4.123 1.158a7.353 7.353 0 0 0 3.161-4.055 14.122 14.122 0 0 1-4.57 1.776 7.081 7.081 0 0 0-2.372-1.704A7.118 7.118 0 0 0 24.678.5C20.715.5 17.5 3.78 17.5 7.822c0 .577.065 1.132.183 1.667-5.972-.307-11.257-3.215-14.802-7.65a7.379 7.379 0 0 0-.973 3.684 7.326 7.326 0 0 0 .839 3.438A7.374 7.374 0 0 0 5.1 11.613a6.964 6.964 0 0 1-3.245-.916v.088c0 3.55 2.476 6.513 5.755 7.19a7.27 7.27 0 0 1-3.246.121c.918 2.908 3.566 5.02 6.707 5.087a14.248 14.248 0 0 1-8.92 3.127 15.23 15.23 0 0 1-1.708-.098A20.031 20.031 0 0 0 11.456 29.5c13.2 0 20.42-11.155 20.42-20.829l-.022-.947a14.627 14.627 0 0 0 3.59-3.794Z" fill="#807E98"/></svg>