<svg width="1300" height="916" fill="none" xmlns="http://www.w3.org/2000/svg"><mask id="b" fill="#fff"><path d="M-72.02 228.978V0H654.016v228.978H-72.019Z"/><path d="M654.015 228.978V0H1380.05v228.978H654.015ZM-72.02 685.911V457.956H654.016V685.911H-72.019Z"/><path d="M654.015 685.911V457.956H1380.05V685.911H654.015ZM-72.02 228.978v228.978H654.016V228.978H-72.019Z"/><path d="M654.015 228.978v228.978H1380.05V228.978H654.015ZM-72.02 685.911v230H654.016v-230H-72.019Z"/><path d="M654.015 685.911v230H1380.05v-230H654.015Z"/></mask><path d="M-42.478 228.978v-28.622h-1v28.622h1Zm0-28.622v-28.623h-1v28.623h1Zm0-28.623v-28.622h-1v28.622h1Zm0-28.622v-28.622h-1v28.622h1Zm0-28.622V85.867h-1v28.622h1Zm0-28.622V57.244h-1v28.623h1Zm0-28.623V28.622h-1v28.622h1Zm0-28.622V0h-1v28.622h1Zm29.041 200.356v-28.622h-1v28.622h1Zm0-28.622v-28.623h-1v28.623h1Zm0-28.623v-28.622h-1v28.622h1Zm0-28.622v-28.622h-1v28.622h1Zm0-28.622V85.867h-1v28.622h1Zm0-28.622V57.244h-1v28.623h1Zm0-28.623V28.622h-1v28.622h1Zm0-28.622V0h-1v28.622h1Zm29.042 200.356v-28.622h-1v28.622h1Zm0-28.622v-28.623h-1v28.623h1Zm0-28.623v-28.622h-1v28.622h1Zm0-28.622v-28.622h-1v28.622h1Zm0-28.622V85.867h-1v28.622h1Zm0-28.622V57.244h-1v28.623h1Zm0-28.623V28.622h-1v28.622h1Zm0-28.622V0h-1v28.622h1Zm29.041 200.356v-28.622h-1v28.622h1Zm0-28.622v-28.623h-1v28.623h1Zm0-28.623v-28.622h-1v28.622h1Zm0-28.622v-28.622h-1v28.622h1Zm0-28.622V85.867h-1v28.622h1Zm0-28.622V57.244h-1v28.623h1Zm0-28.623V28.622h-1v28.622h1Zm0-28.622V0h-1v28.622h1Zm29.041 200.356v-28.622h-1v28.622h1Zm0-28.622v-28.623h-1v28.623h1Zm0-28.623v-28.622h-1v28.622h1Zm0-28.622v-28.622h-1v28.622h1Zm0-28.622V85.867h-1v28.622h1Zm0-28.622V57.244h-1v28.623h1Zm0-28.623V28.622h-1v28.622h1Zm0-28.622V0h-1v28.622h1Zm29.042 200.356v-28.622h-1v28.622h1Zm0-28.622v-28.623h-1v28.623h1Zm0-28.623v-28.622h-1v28.622h1Zm0-28.622v-28.622h-1v28.622h1Zm0-28.622V85.867h-1v28.622h1Zm0-28.622V57.244h-1v28.623h1Zm0-28.623V28.622h-1v28.622h1Zm0-28.622V0h-1v28.622h1Zm29.041 200.356v-28.622h-1v28.622h1Zm0-28.622v-28.623h-1v28.623h1Zm0-28.623v-28.622h-1v28.622h1Zm0-28.622v-28.622h-1v28.622h1Zm0-28.622V85.867h-1v28.622h1Zm0-28.622V57.244h-1v28.623h1Zm0-28.623V28.622h-1v28.622h1Zm0-28.622V0h-1v28.622h1Zm29.041 200.356v-28.622h-1v28.622h1Zm0-28.622v-28.623h-1v28.623h1Zm0-28.623v-28.622h-1v28.622h1Zm0-28.622v-28.622h-1v28.622h1Zm0-28.622V85.867h-1v28.622h1Zm0-28.622V57.244h-1v28.623h1Zm0-28.623V28.622h-1v28.622h1Zm0-28.622V0h-1v28.622h1Zm29.042 200.356v-28.622h-1v28.622h1Zm0-28.622v-28.623h-1v28.623h1Zm0-28.623v-28.622h-1v28.622h1Zm0-28.622v-28.622h-1v28.622h1Zm0-28.622V85.867h-1v28.622h1Zm0-28.622V57.244h-1v28.623h1Zm0-28.623V28.622h-1v28.622h1Zm0-28.622V0h-1v28.622h1Zm29.041 200.356v-28.622h-1v28.622h1Zm0-28.622v-28.623h-1v28.623h1Zm0-28.623v-28.622h-1v28.622h1Zm0-28.622v-28.622h-1v28.622h1Zm0-28.622V85.867h-1v28.622h1Zm0-28.622V57.244h-1v28.623h1Zm0-28.623V28.622h-1v28.622h1Zm0-28.622V0h-1v28.622h1Zm29.042 200.356v-28.622h-1v28.622h1Zm0-28.622v-28.623h-1v28.623h1Zm0-28.623v-28.622h-1v28.622h1Zm0-28.622v-28.622h-1v28.622h1Zm0-28.622V85.867h-1v28.622h1Zm0-28.622V57.244h-1v28.623h1Zm0-28.623V28.622h-1v28.622h1Zm0-28.622V0h-1v28.622h1Zm29.041 200.356v-28.622h-1v28.622h1Zm0-28.622v-28.623h-1v28.623h1Zm0-28.623v-28.622h-1v28.622h1Zm0-28.622v-28.622h-1v28.622h1Zm0-28.622V85.867h-1v28.622h1Zm0-28.622V57.244h-1v28.623h1Zm0-28.623V28.622h-1v28.622h1Zm0-28.622V0h-1v28.622h1Zm29.041 200.356v-28.622h-1v28.622h1Zm0-28.622v-28.623h-1v28.623h1Zm0-28.623v-28.622h-1v28.622h1Zm0-28.622v-28.622h-1v28.622h1Zm0-28.622V85.867h-1v28.622h1Zm0-28.622V57.244h-1v28.623h1Zm0-28.623V28.622h-1v28.622h1Zm0-28.622V0h-1v28.622h1Zm29.042 200.356v-28.622h-1v28.622h1Zm0-28.622v-28.623h-1v28.623h1Zm0-28.623v-28.622h-1v28.622h1Zm0-28.622v-28.622h-1v28.622h1Zm0-28.622V85.867h-1v28.622h1Zm0-28.622V57.244h-1v28.623h1Zm0-28.623V28.622h-1v28.622h1Zm0-28.622V0h-1v28.622h1Zm29.041 200.356v-28.622h-1v28.622h1Zm0-28.622v-28.623h-1v28.623h1Zm0-28.623v-28.622h-1v28.622h1Zm0-28.622v-28.622h-1v28.622h1Zm0-28.622V85.867h-1v28.622h1Zm0-28.622V57.244h-1v28.623h1Zm0-28.623V28.622h-1v28.622h1Zm0-28.622V0h-1v28.622h1Zm29.041 200.356v-28.622h-1v28.622h1Zm0-28.622v-28.623h-1v28.623h1Zm0-28.623v-28.622h-1v28.622h1Zm0-28.622v-28.622h-1v28.622h1Zm0-28.622V85.867h-1v28.622h1Zm0-28.622V57.244h-1v28.623h1Zm0-28.623V28.622h-1v28.622h1Zm0-28.622V0h-1v28.622h1Zm29.042 200.356v-28.622h-1v28.622h1Zm0-28.622v-28.623h-1v28.623h1Zm0-28.623v-28.622h-1v28.622h1Zm0-28.622v-28.622h-1v28.622h1Zm0-28.622V85.867h-1v28.622h1Zm0-28.622V57.244h-1v28.623h1Zm0-28.623V28.622h-1v28.622h1Zm0-28.622V0h-1v28.622h1Zm29.041 200.356v-28.622h-1v28.622h1Zm0-28.622v-28.623h-1v28.623h1Zm0-28.623v-28.622h-1v28.622h1Zm0-28.622v-28.622h-1v28.622h1Zm0-28.622V85.867h-1v28.622h1Zm0-28.622V57.244h-1v28.623h1Zm0-28.623V28.622h-1v28.622h1Zm0-28.622V0h-1v28.622h1Zm29.042 200.356v-28.622h-1v28.622h1Zm0-28.622v-28.623h-1v28.623h1Zm0-28.623v-28.622h-1v28.622h1Zm0-28.622v-28.622h-1v28.622h1Zm0-28.622V85.867h-1v28.622h1Zm0-28.622V57.244h-1v28.623h1Zm0-28.623V28.622h-1v28.622h1Zm0-28.622V0h-1v28.622h1Zm29.041 200.356v-28.622h-1v28.622h1Zm0-28.622v-28.623h-1v28.623h1Zm0-28.623v-28.622h-1v28.622h1Zm0-28.622v-28.622h-1v28.622h1Zm0-28.622V85.867h-1v28.622h1Zm0-28.622V57.244h-1v28.623h1Zm0-28.623V28.622h-1v28.622h1Zm0-28.622V0h-1v28.622h1Zm29.041 200.356v-28.622h-1v28.622h1Zm0-28.622v-28.623h-1v28.623h1Zm0-28.623v-28.622h-1v28.622h1Zm0-28.622v-28.622h-1v28.622h1Zm0-28.622V85.867h-1v28.622h1Zm0-28.622V57.244h-1v28.623h1Zm0-28.623V28.622h-1v28.622h1Zm0-28.622V0h-1v28.622h1Zm29.042 200.356v-28.622h-1v28.622h1Zm0-28.622v-28.623h-1v28.623h1Zm0-28.623v-28.622h-1v28.622h1Zm0-28.622v-28.622h-1v28.622h1Zm0-28.622V85.867h-1v28.622h1Zm0-28.622V57.244h-1v28.623h1Zm0-28.623V28.622h-1v28.622h1Zm0-28.622V0h-1v28.622h1Zm29.041 200.356v-28.622h-1v28.622h1Zm0-28.622v-28.623h-1v28.623h1Zm0-28.623v-28.622h-1v28.622h1Zm0-28.622v-28.622h-1v28.622h1Zm0-28.622V85.867h-1v28.622h1Zm0-28.622V57.244h-1v28.623h1Zm0-28.623V28.622h-1v28.622h1Zm0-28.622V0h-1v28.622h1Zm29.041 200.356v-28.622h-1v28.622h1Zm0-28.622v-28.623h-1v28.623h1Zm0-28.623v-28.622h-1v28.622h1Zm0-28.622v-28.622h-1v28.622h1Zm0-28.622V85.867h-1v28.622h1Zm0-28.622V57.244h-1v28.623h1Zm0-28.623V28.622h-1v28.622h1Zm0-28.622V0h-1v28.622h1Zm29.042 200.356v-28.622h-1v28.622h1Zm0-28.622v-28.623h-1v28.623h1Zm0-28.623v-28.622h-1v28.622h1Zm0-28.622v-28.622h-1v28.622h1Zm0-28.622V85.867h-1v28.622h1Zm0-28.622V57.244h-1v28.623h1Zm0-28.623V28.622h-1v28.622h1Zm0-28.622V0h-1v28.622h1ZM-108 .5h35.98v-1H-108v1Zm762.015 0h26.019v-1h-26.019v1ZM-108 29.122h35.98v-1H-108v1Zm35.98 0h29.042v-1H-72.02v1Zm29.042 0h29.041v-1h-29.041v1Zm29.041 0h29.042v-1h-29.042v1Zm29.042 0h29.041v-1H15.105v1Zm29.041 0h29.041v-1H44.146v1Zm29.041 0h29.042v-1H73.187v1Zm29.042 0h29.041v-1h-29.041v1Zm29.041 0h29.041v-1H131.27v1Zm29.041 0h29.042v-1h-29.042v1Zm29.042 0h29.041v-1h-29.041v1Zm29.041 0h29.042v-1h-29.042v1Zm29.042 0h29.041v-1h-29.041v1Zm29.041 0h29.041v-1h-29.041v1Zm29.041 0h29.042v-1h-29.042v1Zm29.042 0h29.041v-1H334.56v1Zm29.041 0h29.041v-1h-29.041v1Zm29.041 0h29.042v-1h-29.042v1Zm29.042 0h29.041v-1h-29.041v1Zm29.041 0h29.042v-1h-29.042v1Zm29.042 0h29.041v-1h-29.041v1Zm29.041 0h29.041v-1h-29.041v1Zm29.041 0h29.042v-1h-29.042v1Zm29.042 0h29.041v-1h-29.041v1Zm29.041 0h29.041v-1h-29.041v1Zm29.041 0h29.042v-1h-29.042v1Zm29.042 0h26.019v-1h-26.019v1ZM-108 57.744h35.98v-1H-108v1Zm35.98 0h29.042v-1H-72.02v1Zm29.042 0h29.041v-1h-29.041v1Zm29.041 0h29.042v-1h-29.042v1Zm29.042 0h29.041v-1H15.105v1Zm29.041 0h29.041v-1H44.146v1Zm29.041 0h29.042v-1H73.187v1Zm29.042 0h29.041v-1h-29.041v1Zm29.041 0h29.041v-1H131.27v1Zm29.041 0h29.042v-1h-29.042v1Zm29.042 0h29.041v-1h-29.041v1Zm29.041 0h29.042v-1h-29.042v1Zm29.042 0h29.041v-1h-29.041v1Zm29.041 0h29.041v-1h-29.041v1Zm29.041 0h29.042v-1h-29.042v1Zm29.042 0h29.041v-1H334.56v1Zm29.041 0h29.041v-1h-29.041v1Zm29.041 0h29.042v-1h-29.042v1Zm29.042 0h29.041v-1h-29.041v1Zm29.041 0h29.042v-1h-29.042v1Zm29.042 0h29.041v-1h-29.041v1Zm29.041 0h29.041v-1h-29.041v1Zm29.041 0h29.042v-1h-29.042v1Zm29.042 0h29.041v-1h-29.041v1Zm29.041 0h29.041v-1h-29.041v1Zm29.041 0h29.042v-1h-29.042v1Zm29.042 0h26.019v-1h-26.019v1ZM-108 86.367h35.98v-1H-108v1Zm35.98 0h29.042v-1H-72.02v1Zm29.042 0h29.041v-1h-29.041v1Zm29.041 0h29.042v-1h-29.042v1Zm29.042 0h29.041v-1H15.105v1Zm29.041 0h29.041v-1H44.146v1Zm29.041 0h29.042v-1H73.187v1Zm29.042 0h29.041v-1h-29.041v1Zm29.041 0h29.041v-1H131.27v1Zm29.041 0h29.042v-1h-29.042v1Zm29.042 0h29.041v-1h-29.041v1Zm29.041 0h29.042v-1h-29.042v1Zm29.042 0h29.041v-1h-29.041v1Zm29.041 0h29.041v-1h-29.041v1Zm29.041 0h29.042v-1h-29.042v1Zm29.042 0h29.041v-1H334.56v1Zm29.041 0h29.041v-1h-29.041v1Zm29.041 0h29.042v-1h-29.042v1Zm29.042 0h29.041v-1h-29.041v1Zm29.041 0h29.042v-1h-29.042v1Zm29.042 0h29.041v-1h-29.041v1Zm29.041 0h29.041v-1h-29.041v1Zm29.041 0h29.042v-1h-29.042v1Zm29.042 0h29.041v-1h-29.041v1Zm29.041 0h29.041v-1h-29.041v1Zm29.041 0h29.042v-1h-29.042v1Zm29.042 0h26.019v-1h-26.019v1ZM-108 114.989h35.98v-1H-108v1Zm35.98 0h29.042v-1H-72.02v1Zm29.042 0h29.041v-1h-29.041v1Zm29.041 0h29.042v-1h-29.042v1Zm29.042 0h29.041v-1H15.105v1Zm29.041 0h29.041v-1H44.146v1Zm29.041 0h29.042v-1H73.187v1Zm29.042 0h29.041v-1h-29.041v1Zm29.041 0h29.041v-1H131.27v1Zm29.041 0h29.042v-1h-29.042v1Zm29.042 0h29.041v-1h-29.041v1Zm29.041 0h29.042v-1h-29.042v1Zm29.042 0h29.041v-1h-29.041v1Zm29.041 0h29.041v-1h-29.041v1Zm29.041 0h29.042v-1h-29.042v1Zm29.042 0h29.041v-1H334.56v1Zm29.041 0h29.041v-1h-29.041v1Zm29.041 0h29.042v-1h-29.042v1Zm29.042 0h29.041v-1h-29.041v1Zm29.041 0h29.042v-1h-29.042v1Zm29.042 0h29.041v-1h-29.041v1Zm29.041 0h29.041v-1h-29.041v1Zm29.041 0h29.042v-1h-29.042v1Zm29.042 0h29.041v-1h-29.041v1Zm29.041 0h29.041v-1h-29.041v1Zm29.041 0h29.042v-1h-29.042v1Zm29.042 0h26.019v-1h-26.019v1ZM-108 143.611h35.98v-1H-108v1Zm35.98 0h29.042v-1H-72.02v1Zm29.042 0h29.041v-1h-29.041v1Zm29.041 0h29.042v-1h-29.042v1Zm29.042 0h29.041v-1H15.105v1Zm29.041 0h29.041v-1H44.146v1Zm29.041 0h29.042v-1H73.187v1Zm29.042 0h29.041v-1h-29.041v1Zm29.041 0h29.041v-1H131.27v1Zm29.041 0h29.042v-1h-29.042v1Zm29.042 0h29.041v-1h-29.041v1Zm29.041 0h29.042v-1h-29.042v1Zm29.042 0h29.041v-1h-29.041v1Zm29.041 0h29.041v-1h-29.041v1Zm29.041 0h29.042v-1h-29.042v1Zm29.042 0h29.041v-1H334.56v1Zm29.041 0h29.041v-1h-29.041v1Zm29.041 0h29.042v-1h-29.042v1Zm29.042 0h29.041v-1h-29.041v1Zm29.041 0h29.042v-1h-29.042v1Zm29.042 0h29.041v-1h-29.041v1Zm29.041 0h29.041v-1h-29.041v1Zm29.041 0h29.042v-1h-29.042v1Zm29.042 0h29.041v-1h-29.041v1Zm29.041 0h29.041v-1h-29.041v1Zm29.041 0h29.042v-1h-29.042v1Zm29.042 0h26.019v-1h-26.019v1ZM-108 172.233h35.98v-1H-108v1Zm35.98 0h29.042v-1H-72.02v1Zm29.042 0h29.041v-1h-29.041v1Zm29.041 0h29.042v-1h-29.042v1Zm29.042 0h29.041v-1H15.105v1Zm29.041 0h29.041v-1H44.146v1Zm29.041 0h29.042v-1H73.187v1Zm29.042 0h29.041v-1h-29.041v1Zm29.041 0h29.041v-1H131.27v1Zm29.041 0h29.042v-1h-29.042v1Zm29.042 0h29.041v-1h-29.041v1Zm29.041 0h29.042v-1h-29.042v1Zm29.042 0h29.041v-1h-29.041v1Zm29.041 0h29.041v-1h-29.041v1Zm29.041 0h29.042v-1h-29.042v1Zm29.042 0h29.041v-1H334.56v1Zm29.041 0h29.041v-1h-29.041v1Zm29.041 0h29.042v-1h-29.042v1Zm29.042 0h29.041v-1h-29.041v1Zm29.041 0h29.042v-1h-29.042v1Zm29.042 0h29.041v-1h-29.041v1Zm29.041 0h29.041v-1h-29.041v1Zm29.041 0h29.042v-1h-29.042v1Zm29.042 0h29.041v-1h-29.041v1Zm29.041 0h29.041v-1h-29.041v1Zm29.041 0h29.042v-1h-29.042v1Zm29.042 0h26.019v-1h-26.019v1ZM-108 200.856h35.98v-1H-108v1Zm35.98 0h29.042v-1H-72.02v1Zm29.042 0h29.041v-1h-29.041v1Zm29.041 0h29.042v-1h-29.042v1Zm29.042 0h29.041v-1H15.105v1Zm29.041 0h29.041v-1H44.146v1Zm29.041 0h29.042v-1H73.187v1Zm29.042 0h29.041v-1h-29.041v1Zm29.041 0h29.041v-1H131.27v1Zm29.041 0h29.042v-1h-29.042v1Zm29.042 0h29.041v-1h-29.041v1Zm29.041 0h29.042v-1h-29.042v1Zm29.042 0h29.041v-1h-29.041v1Zm29.041 0h29.041v-1h-29.041v1Zm29.041 0h29.042v-1h-29.042v1Zm29.042 0h29.041v-1H334.56v1Zm29.041 0h29.041v-1h-29.041v1Zm29.041 0h29.042v-1h-29.042v1Zm29.042 0h29.041v-1h-29.041v1Zm29.041 0h29.042v-1h-29.042v1Zm29.042 0h29.041v-1h-29.041v1Zm29.041 0h29.041v-1h-29.041v1Zm29.041 0h29.042v-1h-29.042v1Zm29.042 0h29.041v-1h-29.041v1Zm29.041 0h29.041v-1h-29.041v1Zm29.041 0h29.042v-1h-29.042v1Zm29.042 0h26.019v-1h-26.019v1ZM-108 229.478h35.98v-1H-108v1Zm35.98 0h29.042v-1H-72.02v1Zm29.042 0h29.041v-1h-29.041v1Zm29.041 0h29.042v-1h-29.042v1Zm29.042 0h29.041v-1H15.105v1Zm29.041 0h29.041v-1H44.146v1Zm29.041 0h29.042v-1H73.187v1Zm29.042 0h29.041v-1h-29.041v1Zm29.041 0h29.041v-1H131.27v1Zm29.041 0h29.042v-1h-29.042v1Zm29.042 0h29.041v-1h-29.041v1Zm29.041 0h29.042v-1h-29.042v1Zm29.042 0h29.041v-1h-29.041v1Zm29.041 0h29.041v-1h-29.041v1Zm29.041 0h29.042v-1h-29.042v1Zm29.042 0h29.041v-1H334.56v1Zm29.041 0h29.041v-1h-29.041v1Zm29.041 0h29.042v-1h-29.042v1Zm29.042 0h29.041v-1h-29.041v1Zm29.041 0h29.042v-1h-29.042v1Zm29.042 0h29.041v-1h-29.041v1Zm29.041 0h29.041v-1h-29.041v1Zm29.041 0h29.042v-1h-29.042v1Zm29.042 0h29.041v-1h-29.041v1Zm29.041 0h29.041v-1h-29.041v1Zm29.041 0h29.042v-1h-29.042v1Zm29.042 0h26.019v-1h-26.019v1Zm29.541-.5v-28.622h-1v28.622h1Zm0-28.622v-28.623h-1v28.623h1Zm0-28.623v-28.622h-1v28.622h1Zm0-28.622v-28.622h-1v28.622h1Zm0-28.622V85.867h-1v28.622h1Zm0-28.622V57.244h-1v28.623h1Zm0-28.623V28.622h-1v28.622h1Zm0-28.622V0h-1v28.622h1Zm29.041 200.356v-28.622h-1v28.622h1Zm0-28.622v-28.623h-1v28.623h1Zm0-28.623v-28.622h-1v28.622h1Zm0-28.622v-28.622h-1v28.622h1Zm0-28.622V85.867h-1v28.622h1Zm0-28.622V57.244h-1v28.623h1Zm0-28.623V28.622h-1v28.622h1Zm0-28.622V0h-1v28.622h1Zm29.042 200.356v-28.622h-1v28.622h1Zm0-28.622v-28.623h-1v28.623h1Zm0-28.623v-28.622h-1v28.622h1Zm0-28.622v-28.622h-1v28.622h1Zm0-28.622V85.867h-1v28.622h1Zm0-28.622V57.244h-1v28.623h1Zm0-28.623V28.622h-1v28.622h1Zm0-28.622V0h-1v28.622h1Zm29.041 200.356v-28.622h-1v28.622h1Zm0-28.622v-28.623h-1v28.623h1Zm0-28.623v-28.622h-1v28.622h1Zm0-28.622v-28.622h-1v28.622h1Zm0-28.622V85.867h-1v28.622h1Zm0-28.622V57.244h-1v28.623h1Zm0-28.623V28.622h-1v28.622h1Zm0-28.622V0h-1v28.622h1Zm29.042 200.356v-28.622h-1v28.622h1Zm0-28.622v-28.623h-1v28.623h1Zm0-28.623v-28.622h-1v28.622h1Zm0-28.622v-28.622h-1v28.622h1Zm0-28.622V85.867h-1v28.622h1Zm0-28.622V57.244h-1v28.623h1Zm0-28.623V28.622h-1v28.622h1Zm0-28.622V0h-1v28.622h1Zm29.041 200.356v-28.622h-1v28.622h1Zm0-28.622v-28.623h-1v28.623h1Zm0-28.623v-28.622h-1v28.622h1Zm0-28.622v-28.622h-1v28.622h1Zm0-28.622V85.867h-1v28.622h1Zm0-28.622V57.244h-1v28.623h1Zm0-28.623V28.622h-1v28.622h1Zm0-28.622V0h-1v28.622h1Zm29.041 200.356v-28.622h-1v28.622h1Zm0-28.622v-28.623h-1v28.623h1Zm0-28.623v-28.622h-1v28.622h1Zm0-28.622v-28.622h-1v28.622h1Zm0-28.622V85.867h-1v28.622h1Zm0-28.622V57.244h-1v28.623h1Zm0-28.623V28.622h-1v28.622h1Zm0-28.622V0h-1v28.622h1Zm29.042 200.356v-28.622h-1v28.622h1Zm0-28.622v-28.623h-1v28.623h1Zm0-28.623v-28.622h-1v28.622h1Zm0-28.622v-28.622h-1v28.622h1Zm0-28.622V85.867h-1v28.622h1Zm0-28.622V57.244h-1v28.623h1Zm0-28.623V28.622h-1v28.622h1Zm0-28.622V0h-1v28.622h1Zm29.041 200.356v-28.622h-1v28.622h1Zm0-28.622v-28.623h-1v28.623h1Zm0-28.623v-28.622h-1v28.622h1Zm0-28.622v-28.622h-1v28.622h1Zm0-28.622V85.867h-1v28.622h1Zm0-28.622V57.244h-1v28.623h1Zm0-28.623V28.622h-1v28.622h1Zm0-28.622V0h-1v28.622h1Zm29.041 200.356v-28.622h-1v28.622h1Zm0-28.622v-28.623h-1v28.623h1Zm0-28.623v-28.622h-1v28.622h1Zm0-28.622v-28.622h-1v28.622h1Zm0-28.622V85.867h-1v28.622h1Zm0-28.622V57.244h-1v28.623h1Zm0-28.623V28.622h-1v28.622h1Zm0-28.622V0h-1v28.622h1Zm29.042 200.356v-28.622h-1v28.622h1Zm0-28.622v-28.623h-1v28.623h1Zm0-28.623v-28.622h-1v28.622h1Zm0-28.622v-28.622h-1v28.622h1Zm0-28.622V85.867h-1v28.622h1Zm0-28.622V57.244h-1v28.623h1Zm0-28.623V28.622h-1v28.622h1Zm0-28.622V0h-1v28.622h1Zm29.04 200.356v-28.622h-1v28.622h1Zm0-28.622v-28.623h-1v28.623h1Zm0-28.623v-28.622h-1v28.622h1Zm0-28.622v-28.622h-1v28.622h1Zm0-28.622V85.867h-1v28.622h1Zm0-28.622V57.244h-1v28.623h1Zm0-28.623V28.622h-1v28.622h1Zm0-28.622V0h-1v28.622h1Zm29.04 200.356v-28.622h-1v28.622h1Zm0-28.622v-28.623h-1v28.623h1Zm0-28.623v-28.622h-1v28.622h1Zm0-28.622v-28.622h-1v28.622h1Zm0-28.622V85.867h-1v28.622h1Zm0-28.622V57.244h-1v28.623h1Zm0-28.623V28.622h-1v28.622h1Zm0-28.622V0h-1v28.622h1Zm29.04 200.356v-28.622h-1v28.622h1Zm0-28.622v-28.623h-1v28.623h1Zm0-28.623v-28.622h-1v28.622h1Zm0-28.622v-28.622h-1v28.622h1Zm0-28.622V85.867h-1v28.622h1Zm0-28.622V57.244h-1v28.623h1Zm0-28.623V28.622h-1v28.622h1Zm0-28.622V0h-1v28.622h1Zm29.05 200.356v-28.622h-1v28.622h1Zm0-28.622v-28.623h-1v28.623h1Zm0-28.623v-28.622h-1v28.622h1Zm0-28.622v-28.622h-1v28.622h1Zm0-28.622V85.867h-1v28.622h1Zm0-28.622V57.244h-1v28.623h1Zm0-28.623V28.622h-1v28.622h1Zm0-28.622V0h-1v28.622h1Zm29.04 200.356v-28.622h-1v28.622h1Zm0-28.622v-28.623h-1v28.623h1Zm0-28.623v-28.622h-1v28.622h1Zm0-28.622v-28.622h-1v28.622h1Zm0-28.622V85.867h-1v28.622h1Zm0-28.622V57.244h-1v28.623h1Zm0-28.623V28.622h-1v28.622h1Zm0-28.622V0h-1v28.622h1Zm29.04 200.356v-28.622h-1v28.622h1Zm0-28.622v-28.623h-1v28.623h1Zm0-28.623v-28.622h-1v28.622h1Zm0-28.622v-28.622h-1v28.622h1Zm0-28.622V85.867h-1v28.622h1Zm0-28.622V57.244h-1v28.623h1Zm0-28.623V28.622h-1v28.622h1Zm0-28.622V0h-1v28.622h1Zm29.04 200.356v-28.622h-1v28.622h1Zm0-28.622v-28.623h-1v28.623h1Zm0-28.623v-28.622h-1v28.622h1Zm0-28.622v-28.622h-1v28.622h1Zm0-28.622V85.867h-1v28.622h1Zm0-28.622V57.244h-1v28.623h1Zm0-28.623V28.622h-1v28.622h1Zm0-28.622V0h-1v28.622h1Zm29.04 200.356v-28.622h-1v28.622h1Zm0-28.622v-28.623h-1v28.623h1Zm0-28.623v-28.622h-1v28.622h1Zm0-28.622v-28.622h-1v28.622h1Zm0-28.622V85.867h-1v28.622h1Zm0-28.622V57.244h-1v28.623h1Zm0-28.623V28.622h-1v28.622h1Zm0-28.622V0h-1v28.622h1Zm29.04 200.356v-28.622h-1v28.622h1Zm0-28.622v-28.623h-1v28.623h1Zm0-28.623v-28.622h-1v28.622h1Zm0-28.622v-28.622h-1v28.622h1Zm0-28.622V85.867h-1v28.622h1Zm0-28.622V57.244h-1v28.623h1Zm0-28.623V28.622h-1v28.622h1Zm0-28.622V0h-1v28.622h1Zm29.04 200.356v-28.622h-1v28.622h1Zm0-28.622v-28.623h-1v28.623h1Zm0-28.623v-28.622h-1v28.622h1Zm0-28.622v-28.622h-1v28.622h1Zm0-28.622V85.867h-1v28.622h1Zm0-28.622V57.244h-1v28.623h1Zm0-28.623V28.622h-1v28.622h1Zm0-28.622V0h-1v28.622h1Zm29.05 200.356v-28.622h-1v28.622h1Zm0-28.622v-28.623h-1v28.623h1Zm0-28.623v-28.622h-1v28.622h1Zm0-28.622v-28.622h-1v28.622h1Zm0-28.622V85.867h-1v28.622h1Zm0-28.622V57.244h-1v28.623h1Zm0-28.623V28.622h-1v28.622h1Zm0-28.622V0h-1v28.622h1Zm29.04 200.356v-28.622h-1v28.622h1Zm0-28.622v-28.623h-1v28.623h1Zm0-28.623v-28.622h-1v28.622h1Zm0-28.622v-28.622h-1v28.622h1Zm0-28.622V85.867h-1v28.622h1Zm0-28.622V57.244h-1v28.623h1Zm0-28.623V28.622h-1v28.622h1Zm0-28.622V0h-1v28.622h1Zm29.04 200.356v-28.622h-1v28.622h1Zm0-28.622v-28.623h-1v28.623h1Zm0-28.623v-28.622h-1v28.622h1Zm0-28.622v-28.622h-1v28.622h1Zm0-28.622V85.867h-1v28.622h1Zm0-28.622V57.244h-1v28.623h1Zm0-28.623V28.622h-1v28.622h1Zm0-28.622V0h-1v28.622h1ZM619 .5h35.015v-1H619v1Zm761.05 0h26.98v-1h-26.98v1ZM619 29.122h35.015v-1H619v1Zm35.015 0h29.041v-1h-29.041v1Zm29.041 0h29.041v-1h-29.041v1Zm29.041 0h29.042v-1h-29.042v1Zm29.042 0h29.041v-1h-29.041v1Zm29.041 0h29.042v-1H770.18v1Zm29.042 0h29.041v-1h-29.041v1Zm29.041 0h29.041v-1h-29.041v1Zm29.041 0h29.042v-1h-29.042v1Zm29.042 0h29.041v-1h-29.041v1Zm29.041 0h29.041v-1h-29.041v1Zm29.041 0h29.042v-1h-29.042v1Zm29.042 0h29.04v-1h-29.04v1Zm29.04 0h29.04v-1h-29.04v1Zm29.04 0h29.04v-1h-29.04v1Zm29.04 0h29.05v-1h-29.05v1Zm29.05 0h29.04v-1h-29.04v1Zm29.04 0h29.04v-1h-29.04v1Zm29.04 0h29.04v-1h-29.04v1Zm29.04 0h29.04v-1h-29.04v1Zm29.04 0h29.04v-1h-29.04v1Zm29.04 0h29.04v-1h-29.04v1Zm29.04 0h29.05v-1h-29.05v1Zm29.05 0h29.04v-1h-29.04v1Zm29.04 0h29.04v-1h-29.04v1Zm29.04 0h29.04v-1h-29.04v1Zm29.04 0h26.98v-1h-26.98v1ZM619 57.744h35.015v-1H619v1Zm35.015 0h29.041v-1h-29.041v1Zm29.041 0h29.041v-1h-29.041v1Zm29.041 0h29.042v-1h-29.042v1Zm29.042 0h29.041v-1h-29.041v1Zm29.041 0h29.042v-1H770.18v1Zm29.042 0h29.041v-1h-29.041v1Zm29.041 0h29.041v-1h-29.041v1Zm29.041 0h29.042v-1h-29.042v1Zm29.042 0h29.041v-1h-29.041v1Zm29.041 0h29.041v-1h-29.041v1Zm29.041 0h29.042v-1h-29.042v1Zm29.042 0h29.04v-1h-29.04v1Zm29.04 0h29.04v-1h-29.04v1Zm29.04 0h29.04v-1h-29.04v1Zm29.04 0h29.05v-1h-29.05v1Zm29.05 0h29.04v-1h-29.04v1Zm29.04 0h29.04v-1h-29.04v1Zm29.04 0h29.04v-1h-29.04v1Zm29.04 0h29.04v-1h-29.04v1Zm29.04 0h29.04v-1h-29.04v1Zm29.04 0h29.04v-1h-29.04v1Zm29.04 0h29.05v-1h-29.05v1Zm29.05 0h29.04v-1h-29.04v1Zm29.04 0h29.04v-1h-29.04v1Zm29.04 0h29.04v-1h-29.04v1Zm29.04 0h26.98v-1h-26.98v1ZM619 86.367h35.015v-1H619v1Zm35.015 0h29.041v-1h-29.041v1Zm29.041 0h29.041v-1h-29.041v1Zm29.041 0h29.042v-1h-29.042v1Zm29.042 0h29.041v-1h-29.041v1Zm29.041 0h29.042v-1H770.18v1Zm29.042 0h29.041v-1h-29.041v1Zm29.041 0h29.041v-1h-29.041v1Zm29.041 0h29.042v-1h-29.042v1Zm29.042 0h29.041v-1h-29.041v1Zm29.041 0h29.041v-1h-29.041v1Zm29.041 0h29.042v-1h-29.042v1Zm29.042 0h29.04v-1h-29.04v1Zm29.04 0h29.04v-1h-29.04v1Zm29.04 0h29.04v-1h-29.04v1Zm29.04 0h29.05v-1h-29.05v1Zm29.05 0h29.04v-1h-29.04v1Zm29.04 0h29.04v-1h-29.04v1Zm29.04 0h29.04v-1h-29.04v1Zm29.04 0h29.04v-1h-29.04v1Zm29.04 0h29.04v-1h-29.04v1Zm29.04 0h29.04v-1h-29.04v1Zm29.04 0h29.05v-1h-29.05v1Zm29.05 0h29.04v-1h-29.04v1Zm29.04 0h29.04v-1h-29.04v1Zm29.04 0h29.04v-1h-29.04v1Zm29.04 0h26.98v-1h-26.98v1ZM619 114.989h35.015v-1H619v1Zm35.015 0h29.041v-1h-29.041v1Zm29.041 0h29.041v-1h-29.041v1Zm29.041 0h29.042v-1h-29.042v1Zm29.042 0h29.041v-1h-29.041v1Zm29.041 0h29.042v-1H770.18v1Zm29.042 0h29.041v-1h-29.041v1Zm29.041 0h29.041v-1h-29.041v1Zm29.041 0h29.042v-1h-29.042v1Zm29.042 0h29.041v-1h-29.041v1Zm29.041 0h29.041v-1h-29.041v1Zm29.041 0h29.042v-1h-29.042v1Zm29.042 0h29.04v-1h-29.04v1Zm29.04 0h29.04v-1h-29.04v1Zm29.04 0h29.04v-1h-29.04v1Zm29.04 0h29.05v-1h-29.05v1Zm29.05 0h29.04v-1h-29.04v1Zm29.04 0h29.04v-1h-29.04v1Zm29.04 0h29.04v-1h-29.04v1Zm29.04 0h29.04v-1h-29.04v1Zm29.04 0h29.04v-1h-29.04v1Zm29.04 0h29.04v-1h-29.04v1Zm29.04 0h29.05v-1h-29.05v1Zm29.05 0h29.04v-1h-29.04v1Zm29.04 0h29.04v-1h-29.04v1Zm29.04 0h29.04v-1h-29.04v1Zm29.04 0h26.98v-1h-26.98v1ZM619 143.611h35.015v-1H619v1Zm35.015 0h29.041v-1h-29.041v1Zm29.041 0h29.041v-1h-29.041v1Zm29.041 0h29.042v-1h-29.042v1Zm29.042 0h29.041v-1h-29.041v1Zm29.041 0h29.042v-1H770.18v1Zm29.042 0h29.041v-1h-29.041v1Zm29.041 0h29.041v-1h-29.041v1Zm29.041 0h29.042v-1h-29.042v1Zm29.042 0h29.041v-1h-29.041v1Zm29.041 0h29.041v-1h-29.041v1Zm29.041 0h29.042v-1h-29.042v1Zm29.042 0h29.04v-1h-29.04v1Zm29.04 0h29.04v-1h-29.04v1Zm29.04 0h29.04v-1h-29.04v1Zm29.04 0h29.05v-1h-29.05v1Zm29.05 0h29.04v-1h-29.04v1Zm29.04 0h29.04v-1h-29.04v1Zm29.04 0h29.04v-1h-29.04v1Zm29.04 0h29.04v-1h-29.04v1Zm29.04 0h29.04v-1h-29.04v1Zm29.04 0h29.04v-1h-29.04v1Zm29.04 0h29.05v-1h-29.05v1Zm29.05 0h29.04v-1h-29.04v1Zm29.04 0h29.04v-1h-29.04v1Zm29.04 0h29.04v-1h-29.04v1Zm29.04 0h26.98v-1h-26.98v1ZM619 172.233h35.015v-1H619v1Zm35.015 0h29.041v-1h-29.041v1Zm29.041 0h29.041v-1h-29.041v1Zm29.041 0h29.042v-1h-29.042v1Zm29.042 0h29.041v-1h-29.041v1Zm29.041 0h29.042v-1H770.18v1Zm29.042 0h29.041v-1h-29.041v1Zm29.041 0h29.041v-1h-29.041v1Zm29.041 0h29.042v-1h-29.042v1Zm29.042 0h29.041v-1h-29.041v1Zm29.041 0h29.041v-1h-29.041v1Zm29.041 0h29.042v-1h-29.042v1Zm29.042 0h29.04v-1h-29.04v1Zm29.04 0h29.04v-1h-29.04v1Zm29.04 0h29.04v-1h-29.04v1Zm29.04 0h29.05v-1h-29.05v1Zm29.05 0h29.04v-1h-29.04v1Zm29.04 0h29.04v-1h-29.04v1Zm29.04 0h29.04v-1h-29.04v1Zm29.04 0h29.04v-1h-29.04v1Zm29.04 0h29.04v-1h-29.04v1Zm29.04 0h29.04v-1h-29.04v1Zm29.04 0h29.05v-1h-29.05v1Zm29.05 0h29.04v-1h-29.04v1Zm29.04 0h29.04v-1h-29.04v1Zm29.04 0h29.04v-1h-29.04v1Zm29.04 0h26.98v-1h-26.98v1ZM619 200.856h35.015v-1H619v1Zm35.015 0h29.041v-1h-29.041v1Zm29.041 0h29.041v-1h-29.041v1Zm29.041 0h29.042v-1h-29.042v1Zm29.042 0h29.041v-1h-29.041v1Zm29.041 0h29.042v-1H770.18v1Zm29.042 0h29.041v-1h-29.041v1Zm29.041 0h29.041v-1h-29.041v1Zm29.041 0h29.042v-1h-29.042v1Zm29.042 0h29.041v-1h-29.041v1Zm29.041 0h29.041v-1h-29.041v1Zm29.041 0h29.042v-1h-29.042v1Zm29.042 0h29.04v-1h-29.04v1Zm29.04 0h29.04v-1h-29.04v1Zm29.04 0h29.04v-1h-29.04v1Zm29.04 0h29.05v-1h-29.05v1Zm29.05 0h29.04v-1h-29.04v1Zm29.04 0h29.04v-1h-29.04v1Zm29.04 0h29.04v-1h-29.04v1Zm29.04 0h29.04v-1h-29.04v1Zm29.04 0h29.04v-1h-29.04v1Zm29.04 0h29.04v-1h-29.04v1Zm29.04 0h29.05v-1h-29.05v1Zm29.05 0h29.04v-1h-29.04v1Zm29.04 0h29.04v-1h-29.04v1Zm29.04 0h29.04v-1h-29.04v1Zm29.04 0h26.98v-1h-26.98v1ZM619 229.478h35.015v-1H619v1Zm35.015 0h29.041v-1h-29.041v1Zm29.041 0h29.041v-1h-29.041v1Zm29.041 0h29.042v-1h-29.042v1Zm29.042 0h29.041v-1h-29.041v1Zm29.041 0h29.042v-1H770.18v1Zm29.042 0h29.041v-1h-29.041v1Zm29.041 0h29.041v-1h-29.041v1Zm29.041 0h29.042v-1h-29.042v1Zm29.042 0h29.041v-1h-29.041v1Zm29.041 0h29.041v-1h-29.041v1Zm29.041 0h29.042v-1h-29.042v1Zm29.042 0h29.04v-1h-29.04v1Zm29.04 0h29.04v-1h-29.04v1Zm29.04 0h29.04v-1h-29.04v1Zm29.04 0h29.05v-1h-29.05v1Zm29.05 0h29.04v-1h-29.04v1Zm29.04 0h29.04v-1h-29.04v1Zm29.04 0h29.04v-1h-29.04v1Zm29.04 0h29.04v-1h-29.04v1Zm29.04 0h29.04v-1h-29.04v1Zm29.04 0h29.04v-1h-29.04v1Zm29.04 0h29.05v-1h-29.05v1Zm29.05 0h29.04v-1h-29.04v1Zm29.04 0h29.04v-1h-29.04v1Zm29.04 0h29.04v-1h-29.04v1Zm29.04 0h26.98v-1h-26.98v1ZM-42.478 685.911v-28.622h-1v28.622h1Zm0-28.622v-28.622h-1v28.622h1Zm0-28.622v-28.623h-1v28.623h1Zm0-28.623v-28.622h-1v28.622h1Zm0-28.622V542.8h-1v28.622h1Zm0-28.622v-28.622h-1V542.8h1Zm0-28.622v-28.622h-1v28.622h1Zm0-28.622v-27.6h-1v27.6h1Zm29.041 200.355v-28.622h-1v28.622h1Zm0-28.622v-28.622h-1v28.622h1Zm0-28.622v-28.623h-1v28.623h1Zm0-28.623v-28.622h-1v28.622h1Zm0-28.622V542.8h-1v28.622h1Zm0-28.622v-28.622h-1V542.8h1Zm0-28.622v-28.622h-1v28.622h1Zm0-28.622v-27.6h-1v27.6h1Zm29.042 200.355v-28.622h-1v28.622h1Zm0-28.622v-28.622h-1v28.622h1Zm0-28.622v-28.623h-1v28.623h1Zm0-28.623v-28.622h-1v28.622h1Zm0-28.622V542.8h-1v28.622h1Zm0-28.622v-28.622h-1V542.8h1Zm0-28.622v-28.622h-1v28.622h1Zm0-28.622v-27.6h-1v27.6h1Zm29.041 200.355v-28.622h-1v28.622h1Zm0-28.622v-28.622h-1v28.622h1Zm0-28.622v-28.623h-1v28.623h1Zm0-28.623v-28.622h-1v28.622h1Zm0-28.622V542.8h-1v28.622h1Zm0-28.622v-28.622h-1V542.8h1Zm0-28.622v-28.622h-1v28.622h1Zm0-28.622v-27.6h-1v27.6h1Zm29.041 200.355v-28.622h-1v28.622h1Zm0-28.622v-28.622h-1v28.622h1Zm0-28.622v-28.623h-1v28.623h1Zm0-28.623v-28.622h-1v28.622h1Zm0-28.622V542.8h-1v28.622h1Zm0-28.622v-28.622h-1V542.8h1Zm0-28.622v-28.622h-1v28.622h1Zm0-28.622v-27.6h-1v27.6h1Zm29.042 200.355v-28.622h-1v28.622h1Zm0-28.622v-28.622h-1v28.622h1Zm0-28.622v-28.623h-1v28.623h1Zm0-28.623v-28.622h-1v28.622h1Zm0-28.622V542.8h-1v28.622h1Zm0-28.622v-28.622h-1V542.8h1Zm0-28.622v-28.622h-1v28.622h1Zm0-28.622v-27.6h-1v27.6h1Zm29.041 200.355v-28.622h-1v28.622h1Zm0-28.622v-28.622h-1v28.622h1Zm0-28.622v-28.623h-1v28.623h1Zm0-28.623v-28.622h-1v28.622h1Zm0-28.622V542.8h-1v28.622h1Zm0-28.622v-28.622h-1V542.8h1Zm0-28.622v-28.622h-1v28.622h1Zm0-28.622v-27.6h-1v27.6h1Zm29.041 200.355v-28.622h-1v28.622h1Zm0-28.622v-28.622h-1v28.622h1Zm0-28.622v-28.623h-1v28.623h1Zm0-28.623v-28.622h-1v28.622h1Zm0-28.622V542.8h-1v28.622h1Zm0-28.622v-28.622h-1V542.8h1Zm0-28.622v-28.622h-1v28.622h1Zm0-28.622v-27.6h-1v27.6h1Zm29.042 200.355v-28.622h-1v28.622h1Zm0-28.622v-28.622h-1v28.622h1Zm0-28.622v-28.623h-1v28.623h1Zm0-28.623v-28.622h-1v28.622h1Zm0-28.622V542.8h-1v28.622h1Zm0-28.622v-28.622h-1V542.8h1Zm0-28.622v-28.622h-1v28.622h1Zm0-28.622v-27.6h-1v27.6h1Zm29.041 200.355v-28.622h-1v28.622h1Zm0-28.622v-28.622h-1v28.622h1Zm0-28.622v-28.623h-1v28.623h1Zm0-28.623v-28.622h-1v28.622h1Zm0-28.622V542.8h-1v28.622h1Zm0-28.622v-28.622h-1V542.8h1Zm0-28.622v-28.622h-1v28.622h1Zm0-28.622v-27.6h-1v27.6h1Zm29.042 200.355v-28.622h-1v28.622h1Zm0-28.622v-28.622h-1v28.622h1Zm0-28.622v-28.623h-1v28.623h1Zm0-28.623v-28.622h-1v28.622h1Zm0-28.622V542.8h-1v28.622h1Zm0-28.622v-28.622h-1V542.8h1Zm0-28.622v-28.622h-1v28.622h1Zm0-28.622v-27.6h-1v27.6h1Zm29.041 200.355v-28.622h-1v28.622h1Zm0-28.622v-28.622h-1v28.622h1Zm0-28.622v-28.623h-1v28.623h1Zm0-28.623v-28.622h-1v28.622h1Zm0-28.622V542.8h-1v28.622h1Zm0-28.622v-28.622h-1V542.8h1Zm0-28.622v-28.622h-1v28.622h1Zm0-28.622v-27.6h-1v27.6h1Zm29.041 200.355v-28.622h-1v28.622h1Zm0-28.622v-28.622h-1v28.622h1Zm0-28.622v-28.623h-1v28.623h1Zm0-28.623v-28.622h-1v28.622h1Zm0-28.622V542.8h-1v28.622h1Zm0-28.622v-28.622h-1V542.8h1Zm0-28.622v-28.622h-1v28.622h1Zm0-28.622v-27.6h-1v27.6h1Zm29.042 200.355v-28.622h-1v28.622h1Zm0-28.622v-28.622h-1v28.622h1Zm0-28.622v-28.623h-1v28.623h1Zm0-28.623v-28.622h-1v28.622h1Zm0-28.622V542.8h-1v28.622h1Zm0-28.622v-28.622h-1V542.8h1Zm0-28.622v-28.622h-1v28.622h1Zm0-28.622v-27.6h-1v27.6h1Zm29.041 200.355v-28.622h-1v28.622h1Zm0-28.622v-28.622h-1v28.622h1Zm0-28.622v-28.623h-1v28.623h1Zm0-28.623v-28.622h-1v28.622h1Zm0-28.622V542.8h-1v28.622h1Zm0-28.622v-28.622h-1V542.8h1Zm0-28.622v-28.622h-1v28.622h1Zm0-28.622v-27.6h-1v27.6h1Zm29.041 200.355v-28.622h-1v28.622h1Zm0-28.622v-28.622h-1v28.622h1Zm0-28.622v-28.623h-1v28.623h1Zm0-28.623v-28.622h-1v28.622h1Zm0-28.622V542.8h-1v28.622h1Zm0-28.622v-28.622h-1V542.8h1Zm0-28.622v-28.622h-1v28.622h1Zm0-28.622v-27.6h-1v27.6h1Zm29.042 200.355v-28.622h-1v28.622h1Zm0-28.622v-28.622h-1v28.622h1Zm0-28.622v-28.623h-1v28.623h1Zm0-28.623v-28.622h-1v28.622h1Zm0-28.622V542.8h-1v28.622h1Zm0-28.622v-28.622h-1V542.8h1Zm0-28.622v-28.622h-1v28.622h1Zm0-28.622v-27.6h-1v27.6h1Zm29.041 200.355v-28.622h-1v28.622h1Zm0-28.622v-28.622h-1v28.622h1Zm0-28.622v-28.623h-1v28.623h1Zm0-28.623v-28.622h-1v28.622h1Zm0-28.622V542.8h-1v28.622h1Zm0-28.622v-28.622h-1V542.8h1Zm0-28.622v-28.622h-1v28.622h1Zm0-28.622v-27.6h-1v27.6h1Zm29.042 200.355v-28.622h-1v28.622h1Zm0-28.622v-28.622h-1v28.622h1Zm0-28.622v-28.623h-1v28.623h1Zm0-28.623v-28.622h-1v28.622h1Zm0-28.622V542.8h-1v28.622h1Zm0-28.622v-28.622h-1V542.8h1Zm0-28.622v-28.622h-1v28.622h1Zm0-28.622v-27.6h-1v27.6h1Zm29.041 200.355v-28.622h-1v28.622h1Zm0-28.622v-28.622h-1v28.622h1Zm0-28.622v-28.623h-1v28.623h1Zm0-28.623v-28.622h-1v28.622h1Zm0-28.622V542.8h-1v28.622h1Zm0-28.622v-28.622h-1V542.8h1Zm0-28.622v-28.622h-1v28.622h1Zm0-28.622v-27.6h-1v27.6h1Zm29.041 200.355v-28.622h-1v28.622h1Zm0-28.622v-28.622h-1v28.622h1Zm0-28.622v-28.623h-1v28.623h1Zm0-28.623v-28.622h-1v28.622h1Zm0-28.622V542.8h-1v28.622h1Zm0-28.622v-28.622h-1V542.8h1Zm0-28.622v-28.622h-1v28.622h1Zm0-28.622v-27.6h-1v27.6h1Zm29.042 200.355v-28.622h-1v28.622h1Zm0-28.622v-28.622h-1v28.622h1Zm0-28.622v-28.623h-1v28.623h1Zm0-28.623v-28.622h-1v28.622h1Zm0-28.622V542.8h-1v28.622h1Zm0-28.622v-28.622h-1V542.8h1Zm0-28.622v-28.622h-1v28.622h1Zm0-28.622v-27.6h-1v27.6h1Zm29.041 200.355v-28.622h-1v28.622h1Zm0-28.622v-28.622h-1v28.622h1Zm0-28.622v-28.623h-1v28.623h1Zm0-28.623v-28.622h-1v28.622h1Zm0-28.622V542.8h-1v28.622h1Zm0-28.622v-28.622h-1V542.8h1Zm0-28.622v-28.622h-1v28.622h1Zm0-28.622v-27.6h-1v27.6h1Zm29.041 200.355v-28.622h-1v28.622h1Zm0-28.622v-28.622h-1v28.622h1Zm0-28.622v-28.623h-1v28.623h1Zm0-28.623v-28.622h-1v28.622h1Zm0-28.622V542.8h-1v28.622h1Zm0-28.622v-28.622h-1V542.8h1Zm0-28.622v-28.622h-1v28.622h1Zm0-28.622v-27.6h-1v27.6h1Zm29.042 200.355v-28.622h-1v28.622h1Zm0-28.622v-28.622h-1v28.622h1Zm0-28.622v-28.623h-1v28.623h1Zm0-28.623v-28.622h-1v28.622h1Zm0-28.622V542.8h-1v28.622h1Zm0-28.622v-28.622h-1V542.8h1Zm0-28.622v-28.622h-1v28.622h1Zm0-28.622v-27.6h-1v27.6h1ZM-108 458.456h35.98v-1H-108v1Zm35.98 0h29.042v-1H-72.02v1Zm29.042 0h29.041v-1h-29.041v1Zm29.041 0h29.042v-1h-29.042v1Zm29.042 0h29.041v-1H15.105v1Zm29.041 0h29.041v-1H44.146v1Zm29.041 0h29.042v-1H73.187v1Zm29.042 0h29.041v-1h-29.041v1Zm29.041 0h29.041v-1H131.27v1Zm29.041 0h29.042v-1h-29.042v1Zm29.042 0h29.041v-1h-29.041v1Zm29.041 0h29.042v-1h-29.042v1Zm29.042 0h29.041v-1h-29.041v1Zm29.041 0h29.041v-1h-29.041v1Zm29.041 0h29.042v-1h-29.042v1Zm29.042 0h29.041v-1H334.56v1Zm29.041 0h29.041v-1h-29.041v1Zm29.041 0h29.042v-1h-29.042v1Zm29.042 0h29.041v-1h-29.041v1Zm29.041 0h29.042v-1h-29.042v1Zm29.042 0h29.041v-1h-29.041v1Zm29.041 0h29.041v-1h-29.041v1Zm29.041 0h29.042v-1h-29.042v1Zm29.042 0h29.041v-1h-29.041v1Zm29.041 0h29.041v-1h-29.041v1Zm29.041 0h29.042v-1h-29.042v1Zm29.042 0h26.019v-1h-26.019v1ZM-108 486.056h35.98v-1H-108v1Zm35.98 0h29.042v-1H-72.02v1Zm29.042 0h29.041v-1h-29.041v1Zm29.041 0h29.042v-1h-29.042v1Zm29.042 0h29.041v-1H15.105v1Zm29.041 0h29.041v-1H44.146v1Zm29.041 0h29.042v-1H73.187v1Zm29.042 0h29.041v-1h-29.041v1Zm29.041 0h29.041v-1H131.27v1Zm29.041 0h29.042v-1h-29.042v1Zm29.042 0h29.041v-1h-29.041v1Zm29.041 0h29.042v-1h-29.042v1Zm29.042 0h29.041v-1h-29.041v1Zm29.041 0h29.041v-1h-29.041v1Zm29.041 0h29.042v-1h-29.042v1Zm29.042 0h29.041v-1H334.56v1Zm29.041 0h29.041v-1h-29.041v1Zm29.041 0h29.042v-1h-29.042v1Zm29.042 0h29.041v-1h-29.041v1Zm29.041 0h29.042v-1h-29.042v1Zm29.042 0h29.041v-1h-29.041v1Zm29.041 0h29.041v-1h-29.041v1Zm29.041 0h29.042v-1h-29.042v1Zm29.042 0h29.041v-1h-29.041v1Zm29.041 0h29.041v-1h-29.041v1Zm29.041 0h29.042v-1h-29.042v1Zm29.042 0h26.019v-1h-26.019v1ZM-108 514.678h35.98v-1H-108v1Zm35.98 0h29.042v-1H-72.02v1Zm29.042 0h29.041v-1h-29.041v1Zm29.041 0h29.042v-1h-29.042v1Zm29.042 0h29.041v-1H15.105v1Zm29.041 0h29.041v-1H44.146v1Zm29.041 0h29.042v-1H73.187v1Zm29.042 0h29.041v-1h-29.041v1Zm29.041 0h29.041v-1H131.27v1Zm29.041 0h29.042v-1h-29.042v1Zm29.042 0h29.041v-1h-29.041v1Zm29.041 0h29.042v-1h-29.042v1Zm29.042 0h29.041v-1h-29.041v1Zm29.041 0h29.041v-1h-29.041v1Zm29.041 0h29.042v-1h-29.042v1Zm29.042 0h29.041v-1H334.56v1Zm29.041 0h29.041v-1h-29.041v1Zm29.041 0h29.042v-1h-29.042v1Zm29.042 0h29.041v-1h-29.041v1Zm29.041 0h29.042v-1h-29.042v1Zm29.042 0h29.041v-1h-29.041v1Zm29.041 0h29.041v-1h-29.041v1Zm29.041 0h29.042v-1h-29.042v1Zm29.042 0h29.041v-1h-29.041v1Zm29.041 0h29.041v-1h-29.041v1Zm29.041 0h29.042v-1h-29.042v1Zm29.042 0h26.019v-1h-26.019v1ZM-108 543.3h35.98v-1H-108v1Zm35.98 0h29.042v-1H-72.02v1Zm29.042 0h29.041v-1h-29.041v1Zm29.041 0h29.042v-1h-29.042v1Zm29.042 0h29.041v-1H15.105v1Zm29.041 0h29.041v-1H44.146v1Zm29.041 0h29.042v-1H73.187v1Zm29.042 0h29.041v-1h-29.041v1Zm29.041 0h29.041v-1H131.27v1Zm29.041 0h29.042v-1h-29.042v1Zm29.042 0h29.041v-1h-29.041v1Zm29.041 0h29.042v-1h-29.042v1Zm29.042 0h29.041v-1h-29.041v1Zm29.041 0h29.041v-1h-29.041v1Zm29.041 0h29.042v-1h-29.042v1Zm29.042 0h29.041v-1H334.56v1Zm29.041 0h29.041v-1h-29.041v1Zm29.041 0h29.042v-1h-29.042v1Zm29.042 0h29.041v-1h-29.041v1Zm29.041 0h29.042v-1h-29.042v1Zm29.042 0h29.041v-1h-29.041v1Zm29.041 0h29.041v-1h-29.041v1Zm29.041 0h29.042v-1h-29.042v1Zm29.042 0h29.041v-1h-29.041v1Zm29.041 0h29.041v-1h-29.041v1Zm29.041 0h29.042v-1h-29.042v1Zm29.042 0h26.019v-1h-26.019v1ZM-108 571.922h35.98v-1H-108v1Zm35.98 0h29.042v-1H-72.02v1Zm29.042 0h29.041v-1h-29.041v1Zm29.041 0h29.042v-1h-29.042v1Zm29.042 0h29.041v-1H15.105v1Zm29.041 0h29.041v-1H44.146v1Zm29.041 0h29.042v-1H73.187v1Zm29.042 0h29.041v-1h-29.041v1Zm29.041 0h29.041v-1H131.27v1Zm29.041 0h29.042v-1h-29.042v1Zm29.042 0h29.041v-1h-29.041v1Zm29.041 0h29.042v-1h-29.042v1Zm29.042 0h29.041v-1h-29.041v1Zm29.041 0h29.041v-1h-29.041v1Zm29.041 0h29.042v-1h-29.042v1Zm29.042 0h29.041v-1H334.56v1Zm29.041 0h29.041v-1h-29.041v1Zm29.041 0h29.042v-1h-29.042v1Zm29.042 0h29.041v-1h-29.041v1Zm29.041 0h29.042v-1h-29.042v1Zm29.042 0h29.041v-1h-29.041v1Zm29.041 0h29.041v-1h-29.041v1Zm29.041 0h29.042v-1h-29.042v1Zm29.042 0h29.041v-1h-29.041v1Zm29.041 0h29.041v-1h-29.041v1Zm29.041 0h29.042v-1h-29.042v1Zm29.042 0h26.019v-1h-26.019v1ZM-108 600.544h35.98v-1H-108v1Zm35.98 0h29.042v-1H-72.02v1Zm29.042 0h29.041v-1h-29.041v1Zm29.041 0h29.042v-1h-29.042v1Zm29.042 0h29.041v-1H15.105v1Zm29.041 0h29.041v-1H44.146v1Zm29.041 0h29.042v-1H73.187v1Zm29.042 0h29.041v-1h-29.041v1Zm29.041 0h29.041v-1H131.27v1Zm29.041 0h29.042v-1h-29.042v1Zm29.042 0h29.041v-1h-29.041v1Zm29.041 0h29.042v-1h-29.042v1Zm29.042 0h29.041v-1h-29.041v1Zm29.041 0h29.041v-1h-29.041v1Zm29.041 0h29.042v-1h-29.042v1Zm29.042 0h29.041v-1H334.56v1Zm29.041 0h29.041v-1h-29.041v1Zm29.041 0h29.042v-1h-29.042v1Zm29.042 0h29.041v-1h-29.041v1Zm29.041 0h29.042v-1h-29.042v1Zm29.042 0h29.041v-1h-29.041v1Zm29.041 0h29.041v-1h-29.041v1Zm29.041 0h29.042v-1h-29.042v1Zm29.042 0h29.041v-1h-29.041v1Zm29.041 0h29.041v-1h-29.041v1Zm29.041 0h29.042v-1h-29.042v1Zm29.042 0h26.019v-1h-26.019v1ZM-108 629.167h35.98v-1H-108v1Zm35.98 0h29.042v-1H-72.02v1Zm29.042 0h29.041v-1h-29.041v1Zm29.041 0h29.042v-1h-29.042v1Zm29.042 0h29.041v-1H15.105v1Zm29.041 0h29.041v-1H44.146v1Zm29.041 0h29.042v-1H73.187v1Zm29.042 0h29.041v-1h-29.041v1Zm29.041 0h29.041v-1H131.27v1Zm29.041 0h29.042v-1h-29.042v1Zm29.042 0h29.041v-1h-29.041v1Zm29.041 0h29.042v-1h-29.042v1Zm29.042 0h29.041v-1h-29.041v1Zm29.041 0h29.041v-1h-29.041v1Zm29.041 0h29.042v-1h-29.042v1Zm29.042 0h29.041v-1H334.56v1Zm29.041 0h29.041v-1h-29.041v1Zm29.041 0h29.042v-1h-29.042v1Zm29.042 0h29.041v-1h-29.041v1Zm29.041 0h29.042v-1h-29.042v1Zm29.042 0h29.041v-1h-29.041v1Zm29.041 0h29.041v-1h-29.041v1Zm29.041 0h29.042v-1h-29.042v1Zm29.042 0h29.041v-1h-29.041v1Zm29.041 0h29.041v-1h-29.041v1Zm29.041 0h29.042v-1h-29.042v1Zm29.042 0h26.019v-1h-26.019v1ZM-108 657.789h35.98v-1H-108v1Zm35.98 0h29.042v-1H-72.02v1Zm29.042 0h29.041v-1h-29.041v1Zm29.041 0h29.042v-1h-29.042v1Zm29.042 0h29.041v-1H15.105v1Zm29.041 0h29.041v-1H44.146v1Zm29.041 0h29.042v-1H73.187v1Zm29.042 0h29.041v-1h-29.041v1Zm29.041 0h29.041v-1H131.27v1Zm29.041 0h29.042v-1h-29.042v1Zm29.042 0h29.041v-1h-29.041v1Zm29.041 0h29.042v-1h-29.042v1Zm29.042 0h29.041v-1h-29.041v1Zm29.041 0h29.041v-1h-29.041v1Zm29.041 0h29.042v-1h-29.042v1Zm29.042 0h29.041v-1H334.56v1Zm29.041 0h29.041v-1h-29.041v1Zm29.041 0h29.042v-1h-29.042v1Zm29.042 0h29.041v-1h-29.041v1Zm29.041 0h29.042v-1h-29.042v1Zm29.042 0h29.041v-1h-29.041v1Zm29.041 0h29.041v-1h-29.041v1Zm29.041 0h29.042v-1h-29.042v1Zm29.042 0h29.041v-1h-29.041v1Zm29.041 0h29.041v-1h-29.041v1Zm29.041 0h29.042v-1h-29.042v1Zm29.042 0h26.019v-1h-26.019v1ZM-108 686.411h35.98v-1H-108v1Zm35.98 0h29.042v-1H-72.02v1Zm29.042 0h29.041v-1h-29.041v1Zm29.041 0h29.042v-1h-29.042v1Zm29.042 0h29.041v-1H15.105v1Zm29.041 0h29.041v-1H44.146v1Zm29.041 0h29.042v-1H73.187v1Zm29.042 0h29.041v-1h-29.041v1Zm29.041 0h29.041v-1H131.27v1Zm29.041 0h29.042v-1h-29.042v1Zm29.042 0h29.041v-1h-29.041v1Zm29.041 0h29.042v-1h-29.042v1Zm29.042 0h29.041v-1h-29.041v1Zm29.041 0h29.041v-1h-29.041v1Zm29.041 0h29.042v-1h-29.042v1Zm29.042 0h29.041v-1H334.56v1Zm29.041 0h29.041v-1h-29.041v1Zm29.041 0h29.042v-1h-29.042v1Zm29.042 0h29.041v-1h-29.041v1Zm29.041 0h29.042v-1h-29.042v1Zm29.042 0h29.041v-1h-29.041v1Zm29.041 0h29.041v-1h-29.041v1Zm29.041 0h29.042v-1h-29.042v1Zm29.042 0h29.041v-1h-29.041v1Zm29.041 0h29.041v-1h-29.041v1Zm29.041 0h29.042v-1h-29.042v1Zm29.042 0h26.019v-1h-26.019v1Zm29.541-.5v-28.622h-1v28.622h1Zm0-28.622v-28.622h-1v28.622h1Zm0-28.622v-28.623h-1v28.623h1Zm0-28.623v-28.622h-1v28.622h1Zm0-28.622V542.8h-1v28.622h1Zm0-28.622v-28.622h-1V542.8h1Zm0-28.622v-28.622h-1v28.622h1Zm0-28.622v-27.6h-1v27.6h1Zm29.041 200.355v-28.622h-1v28.622h1Zm0-28.622v-28.622h-1v28.622h1Zm0-28.622v-28.623h-1v28.623h1Zm0-28.623v-28.622h-1v28.622h1Zm0-28.622V542.8h-1v28.622h1Zm0-28.622v-28.622h-1V542.8h1Zm0-28.622v-28.622h-1v28.622h1Zm0-28.622v-27.6h-1v27.6h1Zm29.042 200.355v-28.622h-1v28.622h1Zm0-28.622v-28.622h-1v28.622h1Zm0-28.622v-28.623h-1v28.623h1Zm0-28.623v-28.622h-1v28.622h1Zm0-28.622V542.8h-1v28.622h1Zm0-28.622v-28.622h-1V542.8h1Zm0-28.622v-28.622h-1v28.622h1Zm0-28.622v-27.6h-1v27.6h1Zm29.041 200.355v-28.622h-1v28.622h1Zm0-28.622v-28.622h-1v28.622h1Zm0-28.622v-28.623h-1v28.623h1Zm0-28.623v-28.622h-1v28.622h1Zm0-28.622V542.8h-1v28.622h1Zm0-28.622v-28.622h-1V542.8h1Zm0-28.622v-28.622h-1v28.622h1Zm0-28.622v-27.6h-1v27.6h1Zm29.042 200.355v-28.622h-1v28.622h1Zm0-28.622v-28.622h-1v28.622h1Zm0-28.622v-28.623h-1v28.623h1Zm0-28.623v-28.622h-1v28.622h1Zm0-28.622V542.8h-1v28.622h1Zm0-28.622v-28.622h-1V542.8h1Zm0-28.622v-28.622h-1v28.622h1Zm0-28.622v-27.6h-1v27.6h1Zm29.041 200.355v-28.622h-1v28.622h1Zm0-28.622v-28.622h-1v28.622h1Zm0-28.622v-28.623h-1v28.623h1Zm0-28.623v-28.622h-1v28.622h1Zm0-28.622V542.8h-1v28.622h1Zm0-28.622v-28.622h-1V542.8h1Zm0-28.622v-28.622h-1v28.622h1Zm0-28.622v-27.6h-1v27.6h1Zm29.041 200.355v-28.622h-1v28.622h1Zm0-28.622v-28.622h-1v28.622h1Zm0-28.622v-28.623h-1v28.623h1Zm0-28.623v-28.622h-1v28.622h1Zm0-28.622V542.8h-1v28.622h1Zm0-28.622v-28.622h-1V542.8h1Zm0-28.622v-28.622h-1v28.622h1Zm0-28.622v-27.6h-1v27.6h1Zm29.042 200.355v-28.622h-1v28.622h1Zm0-28.622v-28.622h-1v28.622h1Zm0-28.622v-28.623h-1v28.623h1Zm0-28.623v-28.622h-1v28.622h1Zm0-28.622V542.8h-1v28.622h1Zm0-28.622v-28.622h-1V542.8h1Zm0-28.622v-28.622h-1v28.622h1Zm0-28.622v-27.6h-1v27.6h1Zm29.041 200.355v-28.622h-1v28.622h1Zm0-28.622v-28.622h-1v28.622h1Zm0-28.622v-28.623h-1v28.623h1Zm0-28.623v-28.622h-1v28.622h1Zm0-28.622V542.8h-1v28.622h1Zm0-28.622v-28.622h-1V542.8h1Zm0-28.622v-28.622h-1v28.622h1Zm0-28.622v-27.6h-1v27.6h1Zm29.041 200.355v-28.622h-1v28.622h1Zm0-28.622v-28.622h-1v28.622h1Zm0-28.622v-28.623h-1v28.623h1Zm0-28.623v-28.622h-1v28.622h1Zm0-28.622V542.8h-1v28.622h1Zm0-28.622v-28.622h-1V542.8h1Zm0-28.622v-28.622h-1v28.622h1Zm0-28.622v-27.6h-1v27.6h1Zm29.042 200.355v-28.622h-1v28.622h1Zm0-28.622v-28.622h-1v28.622h1Zm0-28.622v-28.623h-1v28.623h1Zm0-28.623v-28.622h-1v28.622h1Zm0-28.622V542.8h-1v28.622h1Zm0-28.622v-28.622h-1V542.8h1Zm0-28.622v-28.622h-1v28.622h1Zm0-28.622v-27.6h-1v27.6h1Zm29.04 200.355v-28.622h-1v28.622h1Zm0-28.622v-28.622h-1v28.622h1Zm0-28.622v-28.623h-1v28.623h1Zm0-28.623v-28.622h-1v28.622h1Zm0-28.622V542.8h-1v28.622h1Zm0-28.622v-28.622h-1V542.8h1Zm0-28.622v-28.622h-1v28.622h1Zm0-28.622v-27.6h-1v27.6h1Zm29.04 200.355v-28.622h-1v28.622h1Zm0-28.622v-28.622h-1v28.622h1Zm0-28.622v-28.623h-1v28.623h1Zm0-28.623v-28.622h-1v28.622h1Zm0-28.622V542.8h-1v28.622h1Zm0-28.622v-28.622h-1V542.8h1Zm0-28.622v-28.622h-1v28.622h1Zm0-28.622v-27.6h-1v27.6h1Zm29.04 200.355v-28.622h-1v28.622h1Zm0-28.622v-28.622h-1v28.622h1Zm0-28.622v-28.623h-1v28.623h1Zm0-28.623v-28.622h-1v28.622h1Zm0-28.622V542.8h-1v28.622h1Zm0-28.622v-28.622h-1V542.8h1Zm0-28.622v-28.622h-1v28.622h1Zm0-28.622v-27.6h-1v27.6h1Zm29.05 200.355v-28.622h-1v28.622h1Zm0-28.622v-28.622h-1v28.622h1Zm0-28.622v-28.623h-1v28.623h1Zm0-28.623v-28.622h-1v28.622h1Zm0-28.622V542.8h-1v28.622h1Zm0-28.622v-28.622h-1V542.8h1Zm0-28.622v-28.622h-1v28.622h1Zm0-28.622v-27.6h-1v27.6h1Zm29.04 200.355v-28.622h-1v28.622h1Zm0-28.622v-28.622h-1v28.622h1Zm0-28.622v-28.623h-1v28.623h1Zm0-28.623v-28.622h-1v28.622h1Zm0-28.622V542.8h-1v28.622h1Zm0-28.622v-28.622h-1V542.8h1Zm0-28.622v-28.622h-1v28.622h1Zm0-28.622v-27.6h-1v27.6h1Zm29.04 200.355v-28.622h-1v28.622h1Zm0-28.622v-28.622h-1v28.622h1Zm0-28.622v-28.623h-1v28.623h1Zm0-28.623v-28.622h-1v28.622h1Zm0-28.622V542.8h-1v28.622h1Zm0-28.622v-28.622h-1V542.8h1Zm0-28.622v-28.622h-1v28.622h1Zm0-28.622v-27.6h-1v27.6h1Zm29.04 200.355v-28.622h-1v28.622h1Zm0-28.622v-28.622h-1v28.622h1Zm0-28.622v-28.623h-1v28.623h1Zm0-28.623v-28.622h-1v28.622h1Zm0-28.622V542.8h-1v28.622h1Zm0-28.622v-28.622h-1V542.8h1Zm0-28.622v-28.622h-1v28.622h1Zm0-28.622v-27.6h-1v27.6h1Zm29.04 200.355v-28.622h-1v28.622h1Zm0-28.622v-28.622h-1v28.622h1Zm0-28.622v-28.623h-1v28.623h1Zm0-28.623v-28.622h-1v28.622h1Zm0-28.622V542.8h-1v28.622h1Zm0-28.622v-28.622h-1V542.8h1Zm0-28.622v-28.622h-1v28.622h1Zm0-28.622v-27.6h-1v27.6h1Zm29.04 200.355v-28.622h-1v28.622h1Zm0-28.622v-28.622h-1v28.622h1Zm0-28.622v-28.623h-1v28.623h1Zm0-28.623v-28.622h-1v28.622h1Zm0-28.622V542.8h-1v28.622h1Zm0-28.622v-28.622h-1V542.8h1Zm0-28.622v-28.622h-1v28.622h1Zm0-28.622v-27.6h-1v27.6h1Zm29.04 200.355v-28.622h-1v28.622h1Zm0-28.622v-28.622h-1v28.622h1Zm0-28.622v-28.623h-1v28.623h1Zm0-28.623v-28.622h-1v28.622h1Zm0-28.622V542.8h-1v28.622h1Zm0-28.622v-28.622h-1V542.8h1Zm0-28.622v-28.622h-1v28.622h1Zm0-28.622v-27.6h-1v27.6h1Zm29.05 200.355v-28.622h-1v28.622h1Zm0-28.622v-28.622h-1v28.622h1Zm0-28.622v-28.623h-1v28.623h1Zm0-28.623v-28.622h-1v28.622h1Zm0-28.622V542.8h-1v28.622h1Zm0-28.622v-28.622h-1V542.8h1Zm0-28.622v-28.622h-1v28.622h1Zm0-28.622v-27.6h-1v27.6h1Zm29.04 200.355v-28.622h-1v28.622h1Zm0-28.622v-28.622h-1v28.622h1Zm0-28.622v-28.623h-1v28.623h1Zm0-28.623v-28.622h-1v28.622h1Zm0-28.622V542.8h-1v28.622h1Zm0-28.622v-28.622h-1V542.8h1Zm0-28.622v-28.622h-1v28.622h1Zm0-28.622v-27.6h-1v27.6h1Zm29.04 200.355v-28.622h-1v28.622h1Zm0-28.622v-28.622h-1v28.622h1Zm0-28.622v-28.623h-1v28.623h1Zm0-28.623v-28.622h-1v28.622h1Zm0-28.622V542.8h-1v28.622h1Zm0-28.622v-28.622h-1V542.8h1Zm0-28.622v-28.622h-1v28.622h1Zm0-28.622v-27.6h-1v27.6h1ZM619 458.456h35.015v-1H619v1Zm35.015 0h29.041v-1h-29.041v1Zm29.041 0h29.041v-1h-29.041v1Zm29.041 0h29.042v-1h-29.042v1Zm29.042 0h29.041v-1h-29.041v1Zm29.041 0h29.042v-1H770.18v1Zm29.042 0h29.041v-1h-29.041v1Zm29.041 0h29.041v-1h-29.041v1Zm29.041 0h29.042v-1h-29.042v1Zm29.042 0h29.041v-1h-29.041v1Zm29.041 0h29.041v-1h-29.041v1Zm29.041 0h29.042v-1h-29.042v1Zm29.042 0h29.04v-1h-29.04v1Zm29.04 0h29.04v-1h-29.04v1Zm29.04 0h29.04v-1h-29.04v1Zm29.04 0h29.05v-1h-29.05v1Zm29.05 0h29.04v-1h-29.04v1Zm29.04 0h29.04v-1h-29.04v1Zm29.04 0h29.04v-1h-29.04v1Zm29.04 0h29.04v-1h-29.04v1Zm29.04 0h29.04v-1h-29.04v1Zm29.04 0h29.04v-1h-29.04v1Zm29.04 0h29.05v-1h-29.05v1Zm29.05 0h29.04v-1h-29.04v1Zm29.04 0h29.04v-1h-29.04v1Zm29.04 0h29.04v-1h-29.04v1Zm29.04 0h26.98v-1h-26.98v1ZM619 486.056h35.015v-1H619v1Zm35.015 0h29.041v-1h-29.041v1Zm29.041 0h29.041v-1h-29.041v1Zm29.041 0h29.042v-1h-29.042v1Zm29.042 0h29.041v-1h-29.041v1Zm29.041 0h29.042v-1H770.18v1Zm29.042 0h29.041v-1h-29.041v1Zm29.041 0h29.041v-1h-29.041v1Zm29.041 0h29.042v-1h-29.042v1Zm29.042 0h29.041v-1h-29.041v1Zm29.041 0h29.041v-1h-29.041v1Zm29.041 0h29.042v-1h-29.042v1Zm29.042 0h29.04v-1h-29.04v1Zm29.04 0h29.04v-1h-29.04v1Zm29.04 0h29.04v-1h-29.04v1Zm29.04 0h29.05v-1h-29.05v1Zm29.05 0h29.04v-1h-29.04v1Zm29.04 0h29.04v-1h-29.04v1Zm29.04 0h29.04v-1h-29.04v1Zm29.04 0h29.04v-1h-29.04v1Zm29.04 0h29.04v-1h-29.04v1Zm29.04 0h29.04v-1h-29.04v1Zm29.04 0h29.05v-1h-29.05v1Zm29.05 0h29.04v-1h-29.04v1Zm29.04 0h29.04v-1h-29.04v1Zm29.04 0h29.04v-1h-29.04v1Zm29.04 0h26.98v-1h-26.98v1ZM619 514.678h35.015v-1H619v1Zm35.015 0h29.041v-1h-29.041v1Zm29.041 0h29.041v-1h-29.041v1Zm29.041 0h29.042v-1h-29.042v1Zm29.042 0h29.041v-1h-29.041v1Zm29.041 0h29.042v-1H770.18v1Zm29.042 0h29.041v-1h-29.041v1Zm29.041 0h29.041v-1h-29.041v1Zm29.041 0h29.042v-1h-29.042v1Zm29.042 0h29.041v-1h-29.041v1Zm29.041 0h29.041v-1h-29.041v1Zm29.041 0h29.042v-1h-29.042v1Zm29.042 0h29.04v-1h-29.04v1Zm29.04 0h29.04v-1h-29.04v1Zm29.04 0h29.04v-1h-29.04v1Zm29.04 0h29.05v-1h-29.05v1Zm29.05 0h29.04v-1h-29.04v1Zm29.04 0h29.04v-1h-29.04v1Zm29.04 0h29.04v-1h-29.04v1Zm29.04 0h29.04v-1h-29.04v1Zm29.04 0h29.04v-1h-29.04v1Zm29.04 0h29.04v-1h-29.04v1Zm29.04 0h29.05v-1h-29.05v1Zm29.05 0h29.04v-1h-29.04v1Zm29.04 0h29.04v-1h-29.04v1Zm29.04 0h29.04v-1h-29.04v1Zm29.04 0h26.98v-1h-26.98v1ZM619 543.3h35.015v-1H619v1Zm35.015 0h29.041v-1h-29.041v1Zm29.041 0h29.041v-1h-29.041v1Zm29.041 0h29.042v-1h-29.042v1Zm29.042 0h29.041v-1h-29.041v1Zm29.041 0h29.042v-1H770.18v1Zm29.042 0h29.041v-1h-29.041v1Zm29.041 0h29.041v-1h-29.041v1Zm29.041 0h29.042v-1h-29.042v1Zm29.042 0h29.041v-1h-29.041v1Zm29.041 0h29.041v-1h-29.041v1Zm29.041 0h29.042v-1h-29.042v1Zm29.042 0h29.04v-1h-29.04v1Zm29.04 0h29.04v-1h-29.04v1Zm29.04 0h29.04v-1h-29.04v1Zm29.04 0h29.05v-1h-29.05v1Zm29.05 0h29.04v-1h-29.04v1Zm29.04 0h29.04v-1h-29.04v1Zm29.04 0h29.04v-1h-29.04v1Zm29.04 0h29.04v-1h-29.04v1Zm29.04 0h29.04v-1h-29.04v1Zm29.04 0h29.04v-1h-29.04v1Zm29.04 0h29.05v-1h-29.05v1Zm29.05 0h29.04v-1h-29.04v1Zm29.04 0h29.04v-1h-29.04v1Zm29.04 0h29.04v-1h-29.04v1Zm29.04 0h26.98v-1h-26.98v1ZM619 571.922h35.015v-1H619v1Zm35.015 0h29.041v-1h-29.041v1Zm29.041 0h29.041v-1h-29.041v1Zm29.041 0h29.042v-1h-29.042v1Zm29.042 0h29.041v-1h-29.041v1Zm29.041 0h29.042v-1H770.18v1Zm29.042 0h29.041v-1h-29.041v1Zm29.041 0h29.041v-1h-29.041v1Zm29.041 0h29.042v-1h-29.042v1Zm29.042 0h29.041v-1h-29.041v1Zm29.041 0h29.041v-1h-29.041v1Zm29.041 0h29.042v-1h-29.042v1Zm29.042 0h29.04v-1h-29.04v1Zm29.04 0h29.04v-1h-29.04v1Zm29.04 0h29.04v-1h-29.04v1Zm29.04 0h29.05v-1h-29.05v1Zm29.05 0h29.04v-1h-29.04v1Zm29.04 0h29.04v-1h-29.04v1Zm29.04 0h29.04v-1h-29.04v1Zm29.04 0h29.04v-1h-29.04v1Zm29.04 0h29.04v-1h-29.04v1Zm29.04 0h29.04v-1h-29.04v1Zm29.04 0h29.05v-1h-29.05v1Zm29.05 0h29.04v-1h-29.04v1Zm29.04 0h29.04v-1h-29.04v1Zm29.04 0h29.04v-1h-29.04v1Zm29.04 0h26.98v-1h-26.98v1ZM619 600.544h35.015v-1H619v1Zm35.015 0h29.041v-1h-29.041v1Zm29.041 0h29.041v-1h-29.041v1Zm29.041 0h29.042v-1h-29.042v1Zm29.042 0h29.041v-1h-29.041v1Zm29.041 0h29.042v-1H770.18v1Zm29.042 0h29.041v-1h-29.041v1Zm29.041 0h29.041v-1h-29.041v1Zm29.041 0h29.042v-1h-29.042v1Zm29.042 0h29.041v-1h-29.041v1Zm29.041 0h29.041v-1h-29.041v1Zm29.041 0h29.042v-1h-29.042v1Zm29.042 0h29.04v-1h-29.04v1Zm29.04 0h29.04v-1h-29.04v1Zm29.04 0h29.04v-1h-29.04v1Zm29.04 0h29.05v-1h-29.05v1Zm29.05 0h29.04v-1h-29.04v1Zm29.04 0h29.04v-1h-29.04v1Zm29.04 0h29.04v-1h-29.04v1Zm29.04 0h29.04v-1h-29.04v1Zm29.04 0h29.04v-1h-29.04v1Zm29.04 0h29.04v-1h-29.04v1Zm29.04 0h29.05v-1h-29.05v1Zm29.05 0h29.04v-1h-29.04v1Zm29.04 0h29.04v-1h-29.04v1Zm29.04 0h29.04v-1h-29.04v1Zm29.04 0h26.98v-1h-26.98v1ZM619 629.167h35.015v-1H619v1Zm35.015 0h29.041v-1h-29.041v1Zm29.041 0h29.041v-1h-29.041v1Zm29.041 0h29.042v-1h-29.042v1Zm29.042 0h29.041v-1h-29.041v1Zm29.041 0h29.042v-1H770.18v1Zm29.042 0h29.041v-1h-29.041v1Zm29.041 0h29.041v-1h-29.041v1Zm29.041 0h29.042v-1h-29.042v1Zm29.042 0h29.041v-1h-29.041v1Zm29.041 0h29.041v-1h-29.041v1Zm29.041 0h29.042v-1h-29.042v1Zm29.042 0h29.04v-1h-29.04v1Zm29.04 0h29.04v-1h-29.04v1Zm29.04 0h29.04v-1h-29.04v1Zm29.04 0h29.05v-1h-29.05v1Zm29.05 0h29.04v-1h-29.04v1Zm29.04 0h29.04v-1h-29.04v1Zm29.04 0h29.04v-1h-29.04v1Zm29.04 0h29.04v-1h-29.04v1Zm29.04 0h29.04v-1h-29.04v1Zm29.04 0h29.04v-1h-29.04v1Zm29.04 0h29.05v-1h-29.05v1Zm29.05 0h29.04v-1h-29.04v1Zm29.04 0h29.04v-1h-29.04v1Zm29.04 0h29.04v-1h-29.04v1Zm29.04 0h26.98v-1h-26.98v1ZM619 657.789h35.015v-1H619v1Zm35.015 0h29.041v-1h-29.041v1Zm29.041 0h29.041v-1h-29.041v1Zm29.041 0h29.042v-1h-29.042v1Zm29.042 0h29.041v-1h-29.041v1Zm29.041 0h29.042v-1H770.18v1Zm29.042 0h29.041v-1h-29.041v1Zm29.041 0h29.041v-1h-29.041v1Zm29.041 0h29.042v-1h-29.042v1Zm29.042 0h29.041v-1h-29.041v1Zm29.041 0h29.041v-1h-29.041v1Zm29.041 0h29.042v-1h-29.042v1Zm29.042 0h29.04v-1h-29.04v1Zm29.04 0h29.04v-1h-29.04v1Zm29.04 0h29.04v-1h-29.04v1Zm29.04 0h29.05v-1h-29.05v1Zm29.05 0h29.04v-1h-29.04v1Zm29.04 0h29.04v-1h-29.04v1Zm29.04 0h29.04v-1h-29.04v1Zm29.04 0h29.04v-1h-29.04v1Zm29.04 0h29.04v-1h-29.04v1Zm29.04 0h29.04v-1h-29.04v1Zm29.04 0h29.05v-1h-29.05v1Zm29.05 0h29.04v-1h-29.04v1Zm29.04 0h29.04v-1h-29.04v1Zm29.04 0h29.04v-1h-29.04v1Zm29.04 0h26.98v-1h-26.98v1ZM619 686.411h35.015v-1H619v1Zm35.015 0h29.041v-1h-29.041v1Zm29.041 0h29.041v-1h-29.041v1Zm29.041 0h29.042v-1h-29.042v1Zm29.042 0h29.041v-1h-29.041v1Zm29.041 0h29.042v-1H770.18v1Zm29.042 0h29.041v-1h-29.041v1Zm29.041 0h29.041v-1h-29.041v1Zm29.041 0h29.042v-1h-29.042v1Zm29.042 0h29.041v-1h-29.041v1Zm29.041 0h29.041v-1h-29.041v1Zm29.041 0h29.042v-1h-29.042v1Zm29.042 0h29.04v-1h-29.04v1Zm29.04 0h29.04v-1h-29.04v1Zm29.04 0h29.04v-1h-29.04v1Zm29.04 0h29.05v-1h-29.05v1Zm29.05 0h29.04v-1h-29.04v1Zm29.04 0h29.04v-1h-29.04v1Zm29.04 0h29.04v-1h-29.04v1Zm29.04 0h29.04v-1h-29.04v1Zm29.04 0h29.04v-1h-29.04v1Zm29.04 0h29.04v-1h-29.04v1Zm29.04 0h29.05v-1h-29.05v1Zm29.05 0h29.04v-1h-29.04v1Zm29.04 0h29.04v-1h-29.04v1Zm29.04 0h29.04v-1h-29.04v1Zm29.04 0h26.98v-1h-26.98v1ZM-43.478 228.978v28.75h1v-28.75h-1Zm0 28.75v28.75h1v-28.75h-1Zm0 28.75v28.75h1v-28.75h-1Zm0 28.75v28.75h1v-28.75h-1Zm0 28.75v28.75h1v-28.75h-1Zm0 28.75v28.75h1v-28.75h-1Zm0 28.75v28.75h1v-28.75h-1Zm0 28.75v27.728h1v-27.728h-1Zm29.041-201.25v28.75h1v-28.75h-1Zm0 28.75v28.75h1v-28.75h-1Zm0 28.75v28.75h1v-28.75h-1Zm0 28.75v28.75h1v-28.75h-1Zm0 28.75v28.75h1v-28.75h-1Zm0 28.75v28.75h1v-28.75h-1Zm0 28.75v28.75h1v-28.75h-1Zm0 28.75v27.728h1v-27.728h-1Zm29.042-201.25v28.75h1v-28.75h-1Zm0 28.75v28.75h1v-28.75h-1Zm0 28.75v28.75h1v-28.75h-1Zm0 28.75v28.75h1v-28.75h-1Zm0 28.75v28.75h1v-28.75h-1Zm0 28.75v28.75h1v-28.75h-1Zm0 28.75v28.75h1v-28.75h-1Zm0 28.75v27.728h1v-27.728h-1Zm29.041-201.25v28.75h1v-28.75h-1Zm0 28.75v28.75h1v-28.75h-1Zm0 28.75v28.75h1v-28.75h-1Zm0 28.75v28.75h1v-28.75h-1Zm0 28.75v28.75h1v-28.75h-1Zm0 28.75v28.75h1v-28.75h-1Zm0 28.75v28.75h1v-28.75h-1Zm0 28.75v27.728h1v-27.728h-1Zm29.041-201.25v28.75h1v-28.75h-1Zm0 28.75v28.75h1v-28.75h-1Zm0 28.75v28.75h1v-28.75h-1Zm0 28.75v28.75h1v-28.75h-1Zm0 28.75v28.75h1v-28.75h-1Zm0 28.75v28.75h1v-28.75h-1Zm0 28.75v28.75h1v-28.75h-1Zm0 28.75v27.728h1v-27.728h-1Zm29.042-201.25v28.75h1v-28.75h-1Zm0 28.75v28.75h1v-28.75h-1Zm0 28.75v28.75h1v-28.75h-1Zm0 28.75v28.75h1v-28.75h-1Zm0 28.75v28.75h1v-28.75h-1Zm0 28.75v28.75h1v-28.75h-1Zm0 28.75v28.75h1v-28.75h-1Zm0 28.75v27.728h1v-27.728h-1Zm29.041-201.25v28.75h1v-28.75h-1Zm0 28.75v28.75h1v-28.75h-1Zm0 28.75v28.75h1v-28.75h-1Zm0 28.75v28.75h1v-28.75h-1Zm0 28.75v28.75h1v-28.75h-1Zm0 28.75v28.75h1v-28.75h-1Zm0 28.75v28.75h1v-28.75h-1Zm0 28.75v27.728h1v-27.728h-1Zm29.041-201.25v28.75h1v-28.75h-1Zm0 28.75v28.75h1v-28.75h-1Zm0 28.75v28.75h1v-28.75h-1Zm0 28.75v28.75h1v-28.75h-1Zm0 28.75v28.75h1v-28.75h-1Zm0 28.75v28.75h1v-28.75h-1Zm0 28.75v28.75h1v-28.75h-1Zm0 28.75v27.728h1v-27.728h-1Zm29.042-201.25v28.75h1v-28.75h-1Zm0 28.75v28.75h1v-28.75h-1Zm0 28.75v28.75h1v-28.75h-1Zm0 28.75v28.75h1v-28.75h-1Zm0 28.75v28.75h1v-28.75h-1Zm0 28.75v28.75h1v-28.75h-1Zm0 28.75v28.75h1v-28.75h-1Zm0 28.75v27.728h1v-27.728h-1Zm29.041-201.25v28.75h1v-28.75h-1Zm0 28.75v28.75h1v-28.75h-1Zm0 28.75v28.75h1v-28.75h-1Zm0 28.75v28.75h1v-28.75h-1Zm0 28.75v28.75h1v-28.75h-1Zm0 28.75v28.75h1v-28.75h-1Zm0 28.75v28.75h1v-28.75h-1Zm0 28.75v27.728h1v-27.728h-1Zm29.042-201.25v28.75h1v-28.75h-1Zm0 28.75v28.75h1v-28.75h-1Zm0 28.75v28.75h1v-28.75h-1Zm0 28.75v28.75h1v-28.75h-1Zm0 28.75v28.75h1v-28.75h-1Zm0 28.75v28.75h1v-28.75h-1Zm0 28.75v28.75h1v-28.75h-1Zm0 28.75v27.728h1v-27.728h-1Zm29.041-201.25v28.75h1v-28.75h-1Zm0 28.75v28.75h1v-28.75h-1Zm0 28.75v28.75h1v-28.75h-1Zm0 28.75v28.75h1v-28.75h-1Zm0 28.75v28.75h1v-28.75h-1Zm0 28.75v28.75h1v-28.75h-1Zm0 28.75v28.75h1v-28.75h-1Zm0 28.75v27.728h1v-27.728h-1Zm29.041-201.25v28.75h1v-28.75h-1Zm0 28.75v28.75h1v-28.75h-1Zm0 28.75v28.75h1v-28.75h-1Zm0 28.75v28.75h1v-28.75h-1Zm0 28.75v28.75h1v-28.75h-1Zm0 28.75v28.75h1v-28.75h-1Zm0 28.75v28.75h1v-28.75h-1Zm0 28.75v27.728h1v-27.728h-1Zm29.042-201.25v28.75h1v-28.75h-1Zm0 28.75v28.75h1v-28.75h-1Zm0 28.75v28.75h1v-28.75h-1Zm0 28.75v28.75h1v-28.75h-1Zm0 28.75v28.75h1v-28.75h-1Zm0 28.75v28.75h1v-28.75h-1Zm0 28.75v28.75h1v-28.75h-1Zm0 28.75v27.728h1v-27.728h-1Zm29.041-201.25v28.75h1v-28.75h-1Zm0 28.75v28.75h1v-28.75h-1Zm0 28.75v28.75h1v-28.75h-1Zm0 28.75v28.75h1v-28.75h-1Zm0 28.75v28.75h1v-28.75h-1Zm0 28.75v28.75h1v-28.75h-1Zm0 28.75v28.75h1v-28.75h-1Zm0 28.75v27.728h1v-27.728h-1Zm29.041-201.25v28.75h1v-28.75h-1Zm0 28.75v28.75h1v-28.75h-1Zm0 28.75v28.75h1v-28.75h-1Zm0 28.75v28.75h1v-28.75h-1Zm0 28.75v28.75h1v-28.75h-1Zm0 28.75v28.75h1v-28.75h-1Zm0 28.75v28.75h1v-28.75h-1Zm0 28.75v27.728h1v-27.728h-1Zm29.042-201.25v28.75h1v-28.75h-1Zm0 28.75v28.75h1v-28.75h-1Zm0 28.75v28.75h1v-28.75h-1Zm0 28.75v28.75h1v-28.75h-1Zm0 28.75v28.75h1v-28.75h-1Zm0 28.75v28.75h1v-28.75h-1Zm0 28.75v28.75h1v-28.75h-1Zm0 28.75v27.728h1v-27.728h-1Zm29.041-201.25v28.75h1v-28.75h-1Zm0 28.75v28.75h1v-28.75h-1Zm0 28.75v28.75h1v-28.75h-1Zm0 28.75v28.75h1v-28.75h-1Zm0 28.75v28.75h1v-28.75h-1Zm0 28.75v28.75h1v-28.75h-1Zm0 28.75v28.75h1v-28.75h-1Zm0 28.75v27.728h1v-27.728h-1Zm29.042-201.25v28.75h1v-28.75h-1Zm0 28.75v28.75h1v-28.75h-1Zm0 28.75v28.75h1v-28.75h-1Zm0 28.75v28.75h1v-28.75h-1Zm0 28.75v28.75h1v-28.75h-1Zm0 28.75v28.75h1v-28.75h-1Zm0 28.75v28.75h1v-28.75h-1Zm0 28.75v27.728h1v-27.728h-1Zm29.041-201.25v28.75h1v-28.75h-1Zm0 28.75v28.75h1v-28.75h-1Zm0 28.75v28.75h1v-28.75h-1Zm0 28.75v28.75h1v-28.75h-1Zm0 28.75v28.75h1v-28.75h-1Zm0 28.75v28.75h1v-28.75h-1Zm0 28.75v28.75h1v-28.75h-1Zm0 28.75v27.728h1v-27.728h-1Zm29.041-201.25v28.75h1v-28.75h-1Zm0 28.75v28.75h1v-28.75h-1Zm0 28.75v28.75h1v-28.75h-1Zm0 28.75v28.75h1v-28.75h-1Zm0 28.75v28.75h1v-28.75h-1Zm0 28.75v28.75h1v-28.75h-1Zm0 28.75v28.75h1v-28.75h-1Zm0 28.75v27.728h1v-27.728h-1Zm29.042-201.25v28.75h1v-28.75h-1Zm0 28.75v28.75h1v-28.75h-1Zm0 28.75v28.75h1v-28.75h-1Zm0 28.75v28.75h1v-28.75h-1Zm0 28.75v28.75h1v-28.75h-1Zm0 28.75v28.75h1v-28.75h-1Zm0 28.75v28.75h1v-28.75h-1Zm0 28.75v27.728h1v-27.728h-1Zm29.041-201.25v28.75h1v-28.75h-1Zm0 28.75v28.75h1v-28.75h-1Zm0 28.75v28.75h1v-28.75h-1Zm0 28.75v28.75h1v-28.75h-1Zm0 28.75v28.75h1v-28.75h-1Zm0 28.75v28.75h1v-28.75h-1Zm0 28.75v28.75h1v-28.75h-1Zm0 28.75v27.728h1v-27.728h-1Zm29.041-201.25v28.75h1v-28.75h-1Zm0 28.75v28.75h1v-28.75h-1Zm0 28.75v28.75h1v-28.75h-1Zm0 28.75v28.75h1v-28.75h-1Zm0 28.75v28.75h1v-28.75h-1Zm0 28.75v28.75h1v-28.75h-1Zm0 28.75v28.75h1v-28.75h-1Zm0 28.75v27.728h1v-27.728h-1Zm29.042-201.25v28.75h1v-28.75h-1Zm0 28.75v28.75h1v-28.75h-1Zm0 28.75v28.75h1v-28.75h-1Zm0 28.75v28.75h1v-28.75h-1Zm0 28.75v28.75h1v-28.75h-1Zm0 28.75v28.75h1v-28.75h-1Zm0 28.75v28.75h1v-28.75h-1Zm0 28.75v27.728h1v-27.728h-1Zm-761.515.5h35.98v-1H-108v1Zm35.98 0h29.042v-1H-72.02v1Zm29.042 0h29.041v-1h-29.041v1Zm29.041 0h29.042v-1h-29.042v1Zm29.042 0h29.041v-1H15.105v1Zm29.041 0h29.041v-1H44.146v1Zm29.041 0h29.042v-1H73.187v1Zm29.042 0h29.041v-1h-29.041v1Zm29.041 0h29.041v-1H131.27v1Zm29.041 0h29.042v-1h-29.042v1Zm29.042 0h29.041v-1h-29.041v1Zm29.041 0h29.042v-1h-29.042v1Zm29.042 0h29.041v-1h-29.041v1Zm29.041 0h29.041v-1h-29.041v1Zm29.041 0h29.042v-1h-29.042v1Zm29.042 0h29.041v-1H334.56v1Zm29.041 0h29.041v-1h-29.041v1Zm29.041 0h29.042v-1h-29.042v1Zm29.042 0h29.041v-1h-29.041v1Zm29.041 0h29.042v-1h-29.042v1Zm29.042 0h29.041v-1h-29.041v1Zm29.041 0h29.041v-1h-29.041v1Zm29.041 0h29.042v-1h-29.042v1Zm29.042 0h29.041v-1h-29.041v1Zm29.041 0h29.041v-1h-29.041v1Zm29.041 0h29.042v-1h-29.042v1Zm29.042 0h26.019v-1h-26.019v1ZM-108 401.978h35.98v-1H-108v1Zm35.98 0h29.042v-1H-72.02v1Zm29.042 0h29.041v-1h-29.041v1Zm29.041 0h29.042v-1h-29.042v1Zm29.042 0h29.041v-1H15.105v1Zm29.041 0h29.041v-1H44.146v1Zm29.041 0h29.042v-1H73.187v1Zm29.042 0h29.041v-1h-29.041v1Zm29.041 0h29.041v-1H131.27v1Zm29.041 0h29.042v-1h-29.042v1Zm29.042 0h29.041v-1h-29.041v1Zm29.041 0h29.042v-1h-29.042v1Zm29.042 0h29.041v-1h-29.041v1Zm29.041 0h29.041v-1h-29.041v1Zm29.041 0h29.042v-1h-29.042v1Zm29.042 0h29.041v-1H334.56v1Zm29.041 0h29.041v-1h-29.041v1Zm29.041 0h29.042v-1h-29.042v1Zm29.042 0h29.041v-1h-29.041v1Zm29.041 0h29.042v-1h-29.042v1Zm29.042 0h29.041v-1h-29.041v1Zm29.041 0h29.041v-1h-29.041v1Zm29.041 0h29.042v-1h-29.042v1Zm29.042 0h29.041v-1h-29.041v1Zm29.041 0h29.041v-1h-29.041v1Zm29.041 0h29.042v-1h-29.042v1Zm29.042 0h26.019v-1h-26.019v1ZM-108 373.228h35.98v-1H-108v1Zm35.98 0h29.042v-1H-72.02v1Zm29.042 0h29.041v-1h-29.041v1Zm29.041 0h29.042v-1h-29.042v1Zm29.042 0h29.041v-1H15.105v1Zm29.041 0h29.041v-1H44.146v1Zm29.041 0h29.042v-1H73.187v1Zm29.042 0h29.041v-1h-29.041v1Zm29.041 0h29.041v-1H131.27v1Zm29.041 0h29.042v-1h-29.042v1Zm29.042 0h29.041v-1h-29.041v1Zm29.041 0h29.042v-1h-29.042v1Zm29.042 0h29.041v-1h-29.041v1Zm29.041 0h29.041v-1h-29.041v1Zm29.041 0h29.042v-1h-29.042v1Zm29.042 0h29.041v-1H334.56v1Zm29.041 0h29.041v-1h-29.041v1Zm29.041 0h29.042v-1h-29.042v1Zm29.042 0h29.041v-1h-29.041v1Zm29.041 0h29.042v-1h-29.042v1Zm29.042 0h29.041v-1h-29.041v1Zm29.041 0h29.041v-1h-29.041v1Zm29.041 0h29.042v-1h-29.042v1Zm29.042 0h29.041v-1h-29.041v1Zm29.041 0h29.041v-1h-29.041v1Zm29.041 0h29.042v-1h-29.042v1Zm29.042 0h26.019v-1h-26.019v1ZM-108 344.478h35.98v-1H-108v1Zm35.98 0h29.042v-1H-72.02v1Zm29.042 0h29.041v-1h-29.041v1Zm29.041 0h29.042v-1h-29.042v1Zm29.042 0h29.041v-1H15.105v1Zm29.041 0h29.041v-1H44.146v1Zm29.041 0h29.042v-1H73.187v1Zm29.042 0h29.041v-1h-29.041v1Zm29.041 0h29.041v-1H131.27v1Zm29.041 0h29.042v-1h-29.042v1Zm29.042 0h29.041v-1h-29.041v1Zm29.041 0h29.042v-1h-29.042v1Zm29.042 0h29.041v-1h-29.041v1Zm29.041 0h29.041v-1h-29.041v1Zm29.041 0h29.042v-1h-29.042v1Zm29.042 0h29.041v-1H334.56v1Zm29.041 0h29.041v-1h-29.041v1Zm29.041 0h29.042v-1h-29.042v1Zm29.042 0h29.041v-1h-29.041v1Zm29.041 0h29.042v-1h-29.042v1Zm29.042 0h29.041v-1h-29.041v1Zm29.041 0h29.041v-1h-29.041v1Zm29.041 0h29.042v-1h-29.042v1Zm29.042 0h29.041v-1h-29.041v1Zm29.041 0h29.041v-1h-29.041v1Zm29.041 0h29.042v-1h-29.042v1Zm29.042 0h26.019v-1h-26.019v1ZM-108 315.728h35.98v-1H-108v1Zm35.98 0h29.042v-1H-72.02v1Zm29.042 0h29.041v-1h-29.041v1Zm29.041 0h29.042v-1h-29.042v1Zm29.042 0h29.041v-1H15.105v1Zm29.041 0h29.041v-1H44.146v1Zm29.041 0h29.042v-1H73.187v1Zm29.042 0h29.041v-1h-29.041v1Zm29.041 0h29.041v-1H131.27v1Zm29.041 0h29.042v-1h-29.042v1Zm29.042 0h29.041v-1h-29.041v1Zm29.041 0h29.042v-1h-29.042v1Zm29.042 0h29.041v-1h-29.041v1Zm29.041 0h29.041v-1h-29.041v1Zm29.041 0h29.042v-1h-29.042v1Zm29.042 0h29.041v-1H334.56v1Zm29.041 0h29.041v-1h-29.041v1Zm29.041 0h29.042v-1h-29.042v1Zm29.042 0h29.041v-1h-29.041v1Zm29.041 0h29.042v-1h-29.042v1Zm29.042 0h29.041v-1h-29.041v1Zm29.041 0h29.041v-1h-29.041v1Zm29.041 0h29.042v-1h-29.042v1Zm29.042 0h29.041v-1h-29.041v1Zm29.041 0h29.041v-1h-29.041v1Zm29.041 0h29.042v-1h-29.042v1Zm29.042 0h26.019v-1h-26.019v1ZM-108 286.978h35.98v-1H-108v1Zm35.98 0h29.042v-1H-72.02v1Zm29.042 0h29.041v-1h-29.041v1Zm29.041 0h29.042v-1h-29.042v1Zm29.042 0h29.041v-1H15.105v1Zm29.041 0h29.041v-1H44.146v1Zm29.041 0h29.042v-1H73.187v1Zm29.042 0h29.041v-1h-29.041v1Zm29.041 0h29.041v-1H131.27v1Zm29.041 0h29.042v-1h-29.042v1Zm29.042 0h29.041v-1h-29.041v1Zm29.041 0h29.042v-1h-29.042v1Zm29.042 0h29.041v-1h-29.041v1Zm29.041 0h29.041v-1h-29.041v1Zm29.041 0h29.042v-1h-29.042v1Zm29.042 0h29.041v-1H334.56v1Zm29.041 0h29.041v-1h-29.041v1Zm29.041 0h29.042v-1h-29.042v1Zm29.042 0h29.041v-1h-29.041v1Zm29.041 0h29.042v-1h-29.042v1Zm29.042 0h29.041v-1h-29.041v1Zm29.041 0h29.041v-1h-29.041v1Zm29.041 0h29.042v-1h-29.042v1Zm29.042 0h29.041v-1h-29.041v1Zm29.041 0h29.041v-1h-29.041v1Zm29.041 0h29.042v-1h-29.042v1Zm29.042 0h26.019v-1h-26.019v1ZM-108 258.228h35.98v-1H-108v1Zm35.98 0h29.042v-1H-72.02v1Zm29.042 0h29.041v-1h-29.041v1Zm29.041 0h29.042v-1h-29.042v1Zm29.042 0h29.041v-1H15.105v1Zm29.041 0h29.041v-1H44.146v1Zm29.041 0h29.042v-1H73.187v1Zm29.042 0h29.041v-1h-29.041v1Zm29.041 0h29.041v-1H131.27v1Zm29.041 0h29.042v-1h-29.042v1Zm29.042 0h29.041v-1h-29.041v1Zm29.041 0h29.042v-1h-29.042v1Zm29.042 0h29.041v-1h-29.041v1Zm29.041 0h29.041v-1h-29.041v1Zm29.041 0h29.042v-1h-29.042v1Zm29.042 0h29.041v-1H334.56v1Zm29.041 0h29.041v-1h-29.041v1Zm29.041 0h29.042v-1h-29.042v1Zm29.042 0h29.041v-1h-29.041v1Zm29.041 0h29.042v-1h-29.042v1Zm29.042 0h29.041v-1h-29.041v1Zm29.041 0h29.041v-1h-29.041v1Zm29.041 0h29.042v-1h-29.042v1Zm29.042 0h29.041v-1h-29.041v1Zm29.041 0h29.041v-1h-29.041v1Zm29.041 0h29.042v-1h-29.042v1Zm29.042 0h26.019v-1h-26.019v1Zm28.541-29.25v28.75h1v-28.75h-1Zm0 28.75v28.75h1v-28.75h-1Zm0 28.75v28.75h1v-28.75h-1Zm0 28.75v28.75h1v-28.75h-1Zm0 28.75v28.75h1v-28.75h-1Zm0 28.75v28.75h1v-28.75h-1Zm0 28.75v28.75h1v-28.75h-1Zm0 28.75v27.728h1v-27.728h-1Zm29.041-201.25v28.75h1v-28.75h-1Zm0 28.75v28.75h1v-28.75h-1Zm0 28.75v28.75h1v-28.75h-1Zm0 28.75v28.75h1v-28.75h-1Zm0 28.75v28.75h1v-28.75h-1Zm0 28.75v28.75h1v-28.75h-1Zm0 28.75v28.75h1v-28.75h-1Zm0 28.75v27.728h1v-27.728h-1Zm29.042-201.25v28.75h1v-28.75h-1Zm0 28.75v28.75h1v-28.75h-1Zm0 28.75v28.75h1v-28.75h-1Zm0 28.75v28.75h1v-28.75h-1Zm0 28.75v28.75h1v-28.75h-1Zm0 28.75v28.75h1v-28.75h-1Zm0 28.75v28.75h1v-28.75h-1Zm0 28.75v27.728h1v-27.728h-1Zm29.041-201.25v28.75h1v-28.75h-1Zm0 28.75v28.75h1v-28.75h-1Zm0 28.75v28.75h1v-28.75h-1Zm0 28.75v28.75h1v-28.75h-1Zm0 28.75v28.75h1v-28.75h-1Zm0 28.75v28.75h1v-28.75h-1Zm0 28.75v28.75h1v-28.75h-1Zm0 28.75v27.728h1v-27.728h-1Zm29.042-201.25v28.75h1v-28.75h-1Zm0 28.75v28.75h1v-28.75h-1Zm0 28.75v28.75h1v-28.75h-1Zm0 28.75v28.75h1v-28.75h-1Zm0 28.75v28.75h1v-28.75h-1Zm0 28.75v28.75h1v-28.75h-1Zm0 28.75v28.75h1v-28.75h-1Zm0 28.75v27.728h1v-27.728h-1Zm29.041-201.25v28.75h1v-28.75h-1Zm0 28.75v28.75h1v-28.75h-1Zm0 28.75v28.75h1v-28.75h-1Zm0 28.75v28.75h1v-28.75h-1Zm0 28.75v28.75h1v-28.75h-1Zm0 28.75v28.75h1v-28.75h-1Zm0 28.75v28.75h1v-28.75h-1Zm0 28.75v27.728h1v-27.728h-1Zm29.041-201.25v28.75h1v-28.75h-1Zm0 28.75v28.75h1v-28.75h-1Zm0 28.75v28.75h1v-28.75h-1Zm0 28.75v28.75h1v-28.75h-1Zm0 28.75v28.75h1v-28.75h-1Zm0 28.75v28.75h1v-28.75h-1Zm0 28.75v28.75h1v-28.75h-1Zm0 28.75v27.728h1v-27.728h-1Zm29.042-201.25v28.75h1v-28.75h-1Zm0 28.75v28.75h1v-28.75h-1Zm0 28.75v28.75h1v-28.75h-1Zm0 28.75v28.75h1v-28.75h-1Zm0 28.75v28.75h1v-28.75h-1Zm0 28.75v28.75h1v-28.75h-1Zm0 28.75v28.75h1v-28.75h-1Zm0 28.75v27.728h1v-27.728h-1Zm29.041-201.25v28.75h1v-28.75h-1Zm0 28.75v28.75h1v-28.75h-1Zm0 28.75v28.75h1v-28.75h-1Zm0 28.75v28.75h1v-28.75h-1Zm0 28.75v28.75h1v-28.75h-1Zm0 28.75v28.75h1v-28.75h-1Zm0 28.75v28.75h1v-28.75h-1Zm0 28.75v27.728h1v-27.728h-1Zm29.041-201.25v28.75h1v-28.75h-1Zm0 28.75v28.75h1v-28.75h-1Zm0 28.75v28.75h1v-28.75h-1Zm0 28.75v28.75h1v-28.75h-1Zm0 28.75v28.75h1v-28.75h-1Zm0 28.75v28.75h1v-28.75h-1Zm0 28.75v28.75h1v-28.75h-1Zm0 28.75v27.728h1v-27.728h-1Zm29.042-201.25v28.75h1v-28.75h-1Zm0 28.75v28.75h1v-28.75h-1Zm0 28.75v28.75h1v-28.75h-1Zm0 28.75v28.75h1v-28.75h-1Zm0 28.75v28.75h1v-28.75h-1Zm0 28.75v28.75h1v-28.75h-1Zm0 28.75v28.75h1v-28.75h-1Zm0 28.75v27.728h1v-27.728h-1Zm29.04-201.25v28.75h1v-28.75h-1Zm0 28.75v28.75h1v-28.75h-1Zm0 28.75v28.75h1v-28.75h-1Zm0 28.75v28.75h1v-28.75h-1Zm0 28.75v28.75h1v-28.75h-1Zm0 28.75v28.75h1v-28.75h-1Zm0 28.75v28.75h1v-28.75h-1Zm0 28.75v27.728h1v-27.728h-1Zm29.04-201.25v28.75h1v-28.75h-1Zm0 28.75v28.75h1v-28.75h-1Zm0 28.75v28.75h1v-28.75h-1Zm0 28.75v28.75h1v-28.75h-1Zm0 28.75v28.75h1v-28.75h-1Zm0 28.75v28.75h1v-28.75h-1Zm0 28.75v28.75h1v-28.75h-1Zm0 28.75v27.728h1v-27.728h-1Zm29.04-201.25v28.75h1v-28.75h-1Zm0 28.75v28.75h1v-28.75h-1Zm0 28.75v28.75h1v-28.75h-1Zm0 28.75v28.75h1v-28.75h-1Zm0 28.75v28.75h1v-28.75h-1Zm0 28.75v28.75h1v-28.75h-1Zm0 28.75v28.75h1v-28.75h-1Zm0 28.75v27.728h1v-27.728h-1Zm29.05-201.25v28.75h1v-28.75h-1Zm0 28.75v28.75h1v-28.75h-1Zm0 28.75v28.75h1v-28.75h-1Zm0 28.75v28.75h1v-28.75h-1Zm0 28.75v28.75h1v-28.75h-1Zm0 28.75v28.75h1v-28.75h-1Zm0 28.75v28.75h1v-28.75h-1Zm0 28.75v27.728h1v-27.728h-1Zm29.04-201.25v28.75h1v-28.75h-1Zm0 28.75v28.75h1v-28.75h-1Zm0 28.75v28.75h1v-28.75h-1Zm0 28.75v28.75h1v-28.75h-1Zm0 28.75v28.75h1v-28.75h-1Zm0 28.75v28.75h1v-28.75h-1Zm0 28.75v28.75h1v-28.75h-1Zm0 28.75v27.728h1v-27.728h-1Zm29.04-201.25v28.75h1v-28.75h-1Zm0 28.75v28.75h1v-28.75h-1Zm0 28.75v28.75h1v-28.75h-1Zm0 28.75v28.75h1v-28.75h-1Zm0 28.75v28.75h1v-28.75h-1Zm0 28.75v28.75h1v-28.75h-1Zm0 28.75v28.75h1v-28.75h-1Zm0 28.75v27.728h1v-27.728h-1Zm29.04-201.25v28.75h1v-28.75h-1Zm0 28.75v28.75h1v-28.75h-1Zm0 28.75v28.75h1v-28.75h-1Zm0 28.75v28.75h1v-28.75h-1Zm0 28.75v28.75h1v-28.75h-1Zm0 28.75v28.75h1v-28.75h-1Zm0 28.75v28.75h1v-28.75h-1Zm0 28.75v27.728h1v-27.728h-1Zm29.04-201.25v28.75h1v-28.75h-1Zm0 28.75v28.75h1v-28.75h-1Zm0 28.75v28.75h1v-28.75h-1Zm0 28.75v28.75h1v-28.75h-1Zm0 28.75v28.75h1v-28.75h-1Zm0 28.75v28.75h1v-28.75h-1Zm0 28.75v28.75h1v-28.75h-1Zm0 28.75v27.728h1v-27.728h-1Zm29.04-201.25v28.75h1v-28.75h-1Zm0 28.75v28.75h1v-28.75h-1Zm0 28.75v28.75h1v-28.75h-1Zm0 28.75v28.75h1v-28.75h-1Zm0 28.75v28.75h1v-28.75h-1Zm0 28.75v28.75h1v-28.75h-1Zm0 28.75v28.75h1v-28.75h-1Zm0 28.75v27.728h1v-27.728h-1Zm29.04-201.25v28.75h1v-28.75h-1Zm0 28.75v28.75h1v-28.75h-1Zm0 28.75v28.75h1v-28.75h-1Zm0 28.75v28.75h1v-28.75h-1Zm0 28.75v28.75h1v-28.75h-1Zm0 28.75v28.75h1v-28.75h-1Zm0 28.75v28.75h1v-28.75h-1Zm0 28.75v27.728h1v-27.728h-1Zm29.05-201.25v28.75h1v-28.75h-1Zm0 28.75v28.75h1v-28.75h-1Zm0 28.75v28.75h1v-28.75h-1Zm0 28.75v28.75h1v-28.75h-1Zm0 28.75v28.75h1v-28.75h-1Zm0 28.75v28.75h1v-28.75h-1Zm0 28.75v28.75h1v-28.75h-1Zm0 28.75v27.728h1v-27.728h-1Zm29.04-201.25v28.75h1v-28.75h-1Zm0 28.75v28.75h1v-28.75h-1Zm0 28.75v28.75h1v-28.75h-1Zm0 28.75v28.75h1v-28.75h-1Zm0 28.75v28.75h1v-28.75h-1Zm0 28.75v28.75h1v-28.75h-1Zm0 28.75v28.75h1v-28.75h-1Zm0 28.75v27.728h1v-27.728h-1Zm29.04-201.25v28.75h1v-28.75h-1Zm0 28.75v28.75h1v-28.75h-1Zm0 28.75v28.75h1v-28.75h-1Zm0 28.75v28.75h1v-28.75h-1Zm0 28.75v28.75h1v-28.75h-1Zm0 28.75v28.75h1v-28.75h-1Zm0 28.75v28.75h1v-28.75h-1Zm0 28.75v27.728h1v-27.728h-1Zm-731.51.5h35.015v-1H619v1Zm35.015 0h29.041v-1h-29.041v1Zm29.041 0h29.041v-1h-29.041v1Zm29.041 0h29.042v-1h-29.042v1Zm29.042 0h29.041v-1h-29.041v1Zm29.041 0h29.042v-1H770.18v1Zm29.042 0h29.041v-1h-29.041v1Zm29.041 0h29.041v-1h-29.041v1Zm29.041 0h29.042v-1h-29.042v1Zm29.042 0h29.041v-1h-29.041v1Zm29.041 0h29.041v-1h-29.041v1Zm29.041 0h29.042v-1h-29.042v1Zm29.042 0h29.04v-1h-29.04v1Zm29.04 0h29.04v-1h-29.04v1Zm29.04 0h29.04v-1h-29.04v1Zm29.04 0h29.05v-1h-29.05v1Zm29.05 0h29.04v-1h-29.04v1Zm29.04 0h29.04v-1h-29.04v1Zm29.04 0h29.04v-1h-29.04v1Zm29.04 0h29.04v-1h-29.04v1Zm29.04 0h29.04v-1h-29.04v1Zm29.04 0h29.04v-1h-29.04v1Zm29.04 0h29.05v-1h-29.05v1Zm29.05 0h29.04v-1h-29.04v1Zm29.04 0h29.04v-1h-29.04v1Zm29.04 0h29.04v-1h-29.04v1Zm29.04 0h26.98v-1h-26.98v1ZM619 401.978h35.015v-1H619v1Zm35.015 0h29.041v-1h-29.041v1Zm29.041 0h29.041v-1h-29.041v1Zm29.041 0h29.042v-1h-29.042v1Zm29.042 0h29.041v-1h-29.041v1Zm29.041 0h29.042v-1H770.18v1Zm29.042 0h29.041v-1h-29.041v1Zm29.041 0h29.041v-1h-29.041v1Zm29.041 0h29.042v-1h-29.042v1Zm29.042 0h29.041v-1h-29.041v1Zm29.041 0h29.041v-1h-29.041v1Zm29.041 0h29.042v-1h-29.042v1Zm29.042 0h29.04v-1h-29.04v1Zm29.04 0h29.04v-1h-29.04v1Zm29.04 0h29.04v-1h-29.04v1Zm29.04 0h29.05v-1h-29.05v1Zm29.05 0h29.04v-1h-29.04v1Zm29.04 0h29.04v-1h-29.04v1Zm29.04 0h29.04v-1h-29.04v1Zm29.04 0h29.04v-1h-29.04v1Zm29.04 0h29.04v-1h-29.04v1Zm29.04 0h29.04v-1h-29.04v1Zm29.04 0h29.05v-1h-29.05v1Zm29.05 0h29.04v-1h-29.04v1Zm29.04 0h29.04v-1h-29.04v1Zm29.04 0h29.04v-1h-29.04v1Zm29.04 0h26.98v-1h-26.98v1ZM619 373.228h35.015v-1H619v1Zm35.015 0h29.041v-1h-29.041v1Zm29.041 0h29.041v-1h-29.041v1Zm29.041 0h29.042v-1h-29.042v1Zm29.042 0h29.041v-1h-29.041v1Zm29.041 0h29.042v-1H770.18v1Zm29.042 0h29.041v-1h-29.041v1Zm29.041 0h29.041v-1h-29.041v1Zm29.041 0h29.042v-1h-29.042v1Zm29.042 0h29.041v-1h-29.041v1Zm29.041 0h29.041v-1h-29.041v1Zm29.041 0h29.042v-1h-29.042v1Zm29.042 0h29.04v-1h-29.04v1Zm29.04 0h29.04v-1h-29.04v1Zm29.04 0h29.04v-1h-29.04v1Zm29.04 0h29.05v-1h-29.05v1Zm29.05 0h29.04v-1h-29.04v1Zm29.04 0h29.04v-1h-29.04v1Zm29.04 0h29.04v-1h-29.04v1Zm29.04 0h29.04v-1h-29.04v1Zm29.04 0h29.04v-1h-29.04v1Zm29.04 0h29.04v-1h-29.04v1Zm29.04 0h29.05v-1h-29.05v1Zm29.05 0h29.04v-1h-29.04v1Zm29.04 0h29.04v-1h-29.04v1Zm29.04 0h29.04v-1h-29.04v1Zm29.04 0h26.98v-1h-26.98v1ZM619 344.478h35.015v-1H619v1Zm35.015 0h29.041v-1h-29.041v1Zm29.041 0h29.041v-1h-29.041v1Zm29.041 0h29.042v-1h-29.042v1Zm29.042 0h29.041v-1h-29.041v1Zm29.041 0h29.042v-1H770.18v1Zm29.042 0h29.041v-1h-29.041v1Zm29.041 0h29.041v-1h-29.041v1Zm29.041 0h29.042v-1h-29.042v1Zm29.042 0h29.041v-1h-29.041v1Zm29.041 0h29.041v-1h-29.041v1Zm29.041 0h29.042v-1h-29.042v1Zm29.042 0h29.04v-1h-29.04v1Zm29.04 0h29.04v-1h-29.04v1Zm29.04 0h29.04v-1h-29.04v1Zm29.04 0h29.05v-1h-29.05v1Zm29.05 0h29.04v-1h-29.04v1Zm29.04 0h29.04v-1h-29.04v1Zm29.04 0h29.04v-1h-29.04v1Zm29.04 0h29.04v-1h-29.04v1Zm29.04 0h29.04v-1h-29.04v1Zm29.04 0h29.04v-1h-29.04v1Zm29.04 0h29.05v-1h-29.05v1Zm29.05 0h29.04v-1h-29.04v1Zm29.04 0h29.04v-1h-29.04v1Zm29.04 0h29.04v-1h-29.04v1Zm29.04 0h26.98v-1h-26.98v1ZM619 315.728h35.015v-1H619v1Zm35.015 0h29.041v-1h-29.041v1Zm29.041 0h29.041v-1h-29.041v1Zm29.041 0h29.042v-1h-29.042v1Zm29.042 0h29.041v-1h-29.041v1Zm29.041 0h29.042v-1H770.18v1Zm29.042 0h29.041v-1h-29.041v1Zm29.041 0h29.041v-1h-29.041v1Zm29.041 0h29.042v-1h-29.042v1Zm29.042 0h29.041v-1h-29.041v1Zm29.041 0h29.041v-1h-29.041v1Zm29.041 0h29.042v-1h-29.042v1Zm29.042 0h29.04v-1h-29.04v1Zm29.04 0h29.04v-1h-29.04v1Zm29.04 0h29.04v-1h-29.04v1Zm29.04 0h29.05v-1h-29.05v1Zm29.05 0h29.04v-1h-29.04v1Zm29.04 0h29.04v-1h-29.04v1Zm29.04 0h29.04v-1h-29.04v1Zm29.04 0h29.04v-1h-29.04v1Zm29.04 0h29.04v-1h-29.04v1Zm29.04 0h29.04v-1h-29.04v1Zm29.04 0h29.05v-1h-29.05v1Zm29.05 0h29.04v-1h-29.04v1Zm29.04 0h29.04v-1h-29.04v1Zm29.04 0h29.04v-1h-29.04v1Zm29.04 0h26.98v-1h-26.98v1ZM619 286.978h35.015v-1H619v1Zm35.015 0h29.041v-1h-29.041v1Zm29.041 0h29.041v-1h-29.041v1Zm29.041 0h29.042v-1h-29.042v1Zm29.042 0h29.041v-1h-29.041v1Zm29.041 0h29.042v-1H770.18v1Zm29.042 0h29.041v-1h-29.041v1Zm29.041 0h29.041v-1h-29.041v1Zm29.041 0h29.042v-1h-29.042v1Zm29.042 0h29.041v-1h-29.041v1Zm29.041 0h29.041v-1h-29.041v1Zm29.041 0h29.042v-1h-29.042v1Zm29.042 0h29.04v-1h-29.04v1Zm29.04 0h29.04v-1h-29.04v1Zm29.04 0h29.04v-1h-29.04v1Zm29.04 0h29.05v-1h-29.05v1Zm29.05 0h29.04v-1h-29.04v1Zm29.04 0h29.04v-1h-29.04v1Zm29.04 0h29.04v-1h-29.04v1Zm29.04 0h29.04v-1h-29.04v1Zm29.04 0h29.04v-1h-29.04v1Zm29.04 0h29.04v-1h-29.04v1Zm29.04 0h29.05v-1h-29.05v1Zm29.05 0h29.04v-1h-29.04v1Zm29.04 0h29.04v-1h-29.04v1Zm29.04 0h29.04v-1h-29.04v1Zm29.04 0h26.98v-1h-26.98v1ZM619 258.228h35.015v-1H619v1Zm35.015 0h29.041v-1h-29.041v1Zm29.041 0h29.041v-1h-29.041v1Zm29.041 0h29.042v-1h-29.042v1Zm29.042 0h29.041v-1h-29.041v1Zm29.041 0h29.042v-1H770.18v1Zm29.042 0h29.041v-1h-29.041v1Zm29.041 0h29.041v-1h-29.041v1Zm29.041 0h29.042v-1h-29.042v1Zm29.042 0h29.041v-1h-29.041v1Zm29.041 0h29.041v-1h-29.041v1Zm29.041 0h29.042v-1h-29.042v1Zm29.042 0h29.04v-1h-29.04v1Zm29.04 0h29.04v-1h-29.04v1Zm29.04 0h29.04v-1h-29.04v1Zm29.04 0h29.05v-1h-29.05v1Zm29.05 0h29.04v-1h-29.04v1Zm29.04 0h29.04v-1h-29.04v1Zm29.04 0h29.04v-1h-29.04v1Zm29.04 0h29.04v-1h-29.04v1Zm29.04 0h29.04v-1h-29.04v1Zm29.04 0h29.04v-1h-29.04v1Zm29.04 0h29.05v-1h-29.05v1Zm29.05 0h29.04v-1h-29.04v1Zm29.04 0h29.04v-1h-29.04v1Zm29.04 0h29.04v-1h-29.04v1Zm29.04 0h26.98v-1h-26.98v1ZM-43.478 685.911v28.75h1v-28.75h-1Zm0 28.75v28.75h1v-28.75h-1Zm0 28.75v28.75h1v-28.75h-1Zm0 28.75v28.75h1v-28.75h-1Zm0 28.75v28.75h1v-28.75h-1Zm0 28.75v28.75h1v-28.75h-1Zm0 28.75v28.75h1v-28.75h-1Zm0 28.75v28.75h1v-28.75h-1Zm29.041-201.25v28.75h1v-28.75h-1Zm0 28.75v28.75h1v-28.75h-1Zm0 28.75v28.75h1v-28.75h-1Zm0 28.75v28.75h1v-28.75h-1Zm0 28.75v28.75h1v-28.75h-1Zm0 28.75v28.75h1v-28.75h-1Zm0 28.75v28.75h1v-28.75h-1Zm0 28.75v28.75h1v-28.75h-1Zm29.042-201.25v28.75h1v-28.75h-1Zm0 28.75v28.75h1v-28.75h-1Zm0 28.75v28.75h1v-28.75h-1Zm0 28.75v28.75h1v-28.75h-1Zm0 28.75v28.75h1v-28.75h-1Zm0 28.75v28.75h1v-28.75h-1Zm0 28.75v28.75h1v-28.75h-1Zm0 28.75v28.75h1v-28.75h-1Zm29.041-201.25v28.75h1v-28.75h-1Zm0 28.75v28.75h1v-28.75h-1Zm0 28.75v28.75h1v-28.75h-1Zm0 28.75v28.75h1v-28.75h-1Zm0 28.75v28.75h1v-28.75h-1Zm0 28.75v28.75h1v-28.75h-1Zm0 28.75v28.75h1v-28.75h-1Zm0 28.75v28.75h1v-28.75h-1Zm29.041-201.25v28.75h1v-28.75h-1Zm0 28.75v28.75h1v-28.75h-1Zm0 28.75v28.75h1v-28.75h-1Zm0 28.75v28.75h1v-28.75h-1Zm0 28.75v28.75h1v-28.75h-1Zm0 28.75v28.75h1v-28.75h-1Zm0 28.75v28.75h1v-28.75h-1Zm0 28.75v28.75h1v-28.75h-1Zm29.042-201.25v28.75h1v-28.75h-1Zm0 28.75v28.75h1v-28.75h-1Zm0 28.75v28.75h1v-28.75h-1Zm0 28.75v28.75h1v-28.75h-1Zm0 28.75v28.75h1v-28.75h-1Zm0 28.75v28.75h1v-28.75h-1Zm0 28.75v28.75h1v-28.75h-1Zm0 28.75v28.75h1v-28.75h-1Zm29.041-201.25v28.75h1v-28.75h-1Zm0 28.75v28.75h1v-28.75h-1Zm0 28.75v28.75h1v-28.75h-1Zm0 28.75v28.75h1v-28.75h-1Zm0 28.75v28.75h1v-28.75h-1Zm0 28.75v28.75h1v-28.75h-1Zm0 28.75v28.75h1v-28.75h-1Zm0 28.75v28.75h1v-28.75h-1Zm29.041-201.25v28.75h1v-28.75h-1Zm0 28.75v28.75h1v-28.75h-1Zm0 28.75v28.75h1v-28.75h-1Zm0 28.75v28.75h1v-28.75h-1Zm0 28.75v28.75h1v-28.75h-1Zm0 28.75v28.75h1v-28.75h-1Zm0 28.75v28.75h1v-28.75h-1Zm0 28.75v28.75h1v-28.75h-1Zm29.042-201.25v28.75h1v-28.75h-1Zm0 28.75v28.75h1v-28.75h-1Zm0 28.75v28.75h1v-28.75h-1Zm0 28.75v28.75h1v-28.75h-1Zm0 28.75v28.75h1v-28.75h-1Zm0 28.75v28.75h1v-28.75h-1Zm0 28.75v28.75h1v-28.75h-1Zm0 28.75v28.75h1v-28.75h-1Zm29.041-201.25v28.75h1v-28.75h-1Zm0 28.75v28.75h1v-28.75h-1Zm0 28.75v28.75h1v-28.75h-1Zm0 28.75v28.75h1v-28.75h-1Zm0 28.75v28.75h1v-28.75h-1Zm0 28.75v28.75h1v-28.75h-1Zm0 28.75v28.75h1v-28.75h-1Zm0 28.75v28.75h1v-28.75h-1Zm29.042-201.25v28.75h1v-28.75h-1Zm0 28.75v28.75h1v-28.75h-1Zm0 28.75v28.75h1v-28.75h-1Zm0 28.75v28.75h1v-28.75h-1Zm0 28.75v28.75h1v-28.75h-1Zm0 28.75v28.75h1v-28.75h-1Zm0 28.75v28.75h1v-28.75h-1Zm0 28.75v28.75h1v-28.75h-1Zm29.041-201.25v28.75h1v-28.75h-1Zm0 28.75v28.75h1v-28.75h-1Zm0 28.75v28.75h1v-28.75h-1Zm0 28.75v28.75h1v-28.75h-1Zm0 28.75v28.75h1v-28.75h-1Zm0 28.75v28.75h1v-28.75h-1Zm0 28.75v28.75h1v-28.75h-1Zm0 28.75v28.75h1v-28.75h-1Zm29.041-201.25v28.75h1v-28.75h-1Zm0 28.75v28.75h1v-28.75h-1Zm0 28.75v28.75h1v-28.75h-1Zm0 28.75v28.75h1v-28.75h-1Zm0 28.75v28.75h1v-28.75h-1Zm0 28.75v28.75h1v-28.75h-1Zm0 28.75v28.75h1v-28.75h-1Zm0 28.75v28.75h1v-28.75h-1Zm29.042-201.25v28.75h1v-28.75h-1Zm0 28.75v28.75h1v-28.75h-1Zm0 28.75v28.75h1v-28.75h-1Zm0 28.75v28.75h1v-28.75h-1Zm0 28.75v28.75h1v-28.75h-1Zm0 28.75v28.75h1v-28.75h-1Zm0 28.75v28.75h1v-28.75h-1Zm0 28.75v28.75h1v-28.75h-1Zm29.041-201.25v28.75h1v-28.75h-1Zm0 28.75v28.75h1v-28.75h-1Zm0 28.75v28.75h1v-28.75h-1Zm0 28.75v28.75h1v-28.75h-1Zm0 28.75v28.75h1v-28.75h-1Zm0 28.75v28.75h1v-28.75h-1Zm0 28.75v28.75h1v-28.75h-1Zm0 28.75v28.75h1v-28.75h-1Zm29.041-201.25v28.75h1v-28.75h-1Zm0 28.75v28.75h1v-28.75h-1Zm0 28.75v28.75h1v-28.75h-1Zm0 28.75v28.75h1v-28.75h-1Zm0 28.75v28.75h1v-28.75h-1Zm0 28.75v28.75h1v-28.75h-1Zm0 28.75v28.75h1v-28.75h-1Zm0 28.75v28.75h1v-28.75h-1Zm29.042-201.25v28.75h1v-28.75h-1Zm0 28.75v28.75h1v-28.75h-1Zm0 28.75v28.75h1v-28.75h-1Zm0 28.75v28.75h1v-28.75h-1Zm0 28.75v28.75h1v-28.75h-1Zm0 28.75v28.75h1v-28.75h-1Zm0 28.75v28.75h1v-28.75h-1Zm0 28.75v28.75h1v-28.75h-1Zm29.041-201.25v28.75h1v-28.75h-1Zm0 28.75v28.75h1v-28.75h-1Zm0 28.75v28.75h1v-28.75h-1Zm0 28.75v28.75h1v-28.75h-1Zm0 28.75v28.75h1v-28.75h-1Zm0 28.75v28.75h1v-28.75h-1Zm0 28.75v28.75h1v-28.75h-1Zm0 28.75v28.75h1v-28.75h-1Zm29.042-201.25v28.75h1v-28.75h-1Zm0 28.75v28.75h1v-28.75h-1Zm0 28.75v28.75h1v-28.75h-1Zm0 28.75v28.75h1v-28.75h-1Zm0 28.75v28.75h1v-28.75h-1Zm0 28.75v28.75h1v-28.75h-1Zm0 28.75v28.75h1v-28.75h-1Zm0 28.75v28.75h1v-28.75h-1Zm29.041-201.25v28.75h1v-28.75h-1Zm0 28.75v28.75h1v-28.75h-1Zm0 28.75v28.75h1v-28.75h-1Zm0 28.75v28.75h1v-28.75h-1Zm0 28.75v28.75h1v-28.75h-1Zm0 28.75v28.75h1v-28.75h-1Zm0 28.75v28.75h1v-28.75h-1Zm0 28.75v28.75h1v-28.75h-1Zm29.041-201.25v28.75h1v-28.75h-1Zm0 28.75v28.75h1v-28.75h-1Zm0 28.75v28.75h1v-28.75h-1Zm0 28.75v28.75h1v-28.75h-1Zm0 28.75v28.75h1v-28.75h-1Zm0 28.75v28.75h1v-28.75h-1Zm0 28.75v28.75h1v-28.75h-1Zm0 28.75v28.75h1v-28.75h-1Zm29.042-201.25v28.75h1v-28.75h-1Zm0 28.75v28.75h1v-28.75h-1Zm0 28.75v28.75h1v-28.75h-1Zm0 28.75v28.75h1v-28.75h-1Zm0 28.75v28.75h1v-28.75h-1Zm0 28.75v28.75h1v-28.75h-1Zm0 28.75v28.75h1v-28.75h-1Zm0 28.75v28.75h1v-28.75h-1Zm29.041-201.25v28.75h1v-28.75h-1Zm0 28.75v28.75h1v-28.75h-1Zm0 28.75v28.75h1v-28.75h-1Zm0 28.75v28.75h1v-28.75h-1Zm0 28.75v28.75h1v-28.75h-1Zm0 28.75v28.75h1v-28.75h-1Zm0 28.75v28.75h1v-28.75h-1Zm0 28.75v28.75h1v-28.75h-1Zm29.041-201.25v28.75h1v-28.75h-1Zm0 28.75v28.75h1v-28.75h-1Zm0 28.75v28.75h1v-28.75h-1Zm0 28.75v28.75h1v-28.75h-1Zm0 28.75v28.75h1v-28.75h-1Zm0 28.75v28.75h1v-28.75h-1Zm0 28.75v28.75h1v-28.75h-1Zm0 28.75v28.75h1v-28.75h-1Zm29.042-201.25v28.75h1v-28.75h-1Zm0 28.75v28.75h1v-28.75h-1Zm0 28.75v28.75h1v-28.75h-1Zm0 28.75v28.75h1v-28.75h-1Zm0 28.75v28.75h1v-28.75h-1Zm0 28.75v28.75h1v-28.75h-1Zm0 28.75v28.75h1v-28.75h-1Zm0 28.75v28.75h1v-28.75h-1ZM-108 916.411h35.98v-1H-108v1Zm762.015 0h26.019v-1h-26.019v1ZM-108 887.661h35.98v-1H-108v1Zm35.98 0h29.042v-1H-72.02v1Zm29.042 0h29.041v-1h-29.041v1Zm29.041 0h29.042v-1h-29.042v1Zm29.042 0h29.041v-1H15.105v1Zm29.041 0h29.041v-1H44.146v1Zm29.041 0h29.042v-1H73.187v1Zm29.042 0h29.041v-1h-29.041v1Zm29.041 0h29.041v-1H131.27v1Zm29.041 0h29.042v-1h-29.042v1Zm29.042 0h29.041v-1h-29.041v1Zm29.041 0h29.042v-1h-29.042v1Zm29.042 0h29.041v-1h-29.041v1Zm29.041 0h29.041v-1h-29.041v1Zm29.041 0h29.042v-1h-29.042v1Zm29.042 0h29.041v-1H334.56v1Zm29.041 0h29.041v-1h-29.041v1Zm29.041 0h29.042v-1h-29.042v1Zm29.042 0h29.041v-1h-29.041v1Zm29.041 0h29.042v-1h-29.042v1Zm29.042 0h29.041v-1h-29.041v1Zm29.041 0h29.041v-1h-29.041v1Zm29.041 0h29.042v-1h-29.042v1Zm29.042 0h29.041v-1h-29.041v1Zm29.041 0h29.041v-1h-29.041v1Zm29.041 0h29.042v-1h-29.042v1Zm29.042 0h26.019v-1h-26.019v1ZM-108 858.911h35.98v-1H-108v1Zm35.98 0h29.042v-1H-72.02v1Zm29.042 0h29.041v-1h-29.041v1Zm29.041 0h29.042v-1h-29.042v1Zm29.042 0h29.041v-1H15.105v1Zm29.041 0h29.041v-1H44.146v1Zm29.041 0h29.042v-1H73.187v1Zm29.042 0h29.041v-1h-29.041v1Zm29.041 0h29.041v-1H131.27v1Zm29.041 0h29.042v-1h-29.042v1Zm29.042 0h29.041v-1h-29.041v1Zm29.041 0h29.042v-1h-29.042v1Zm29.042 0h29.041v-1h-29.041v1Zm29.041 0h29.041v-1h-29.041v1Zm29.041 0h29.042v-1h-29.042v1Zm29.042 0h29.041v-1H334.56v1Zm29.041 0h29.041v-1h-29.041v1Zm29.041 0h29.042v-1h-29.042v1Zm29.042 0h29.041v-1h-29.041v1Zm29.041 0h29.042v-1h-29.042v1Zm29.042 0h29.041v-1h-29.041v1Zm29.041 0h29.041v-1h-29.041v1Zm29.041 0h29.042v-1h-29.042v1Zm29.042 0h29.041v-1h-29.041v1Zm29.041 0h29.041v-1h-29.041v1Zm29.041 0h29.042v-1h-29.042v1Zm29.042 0h26.019v-1h-26.019v1ZM-108 830.161h35.98v-1H-108v1Zm35.98 0h29.042v-1H-72.02v1Zm29.042 0h29.041v-1h-29.041v1Zm29.041 0h29.042v-1h-29.042v1Zm29.042 0h29.041v-1H15.105v1Zm29.041 0h29.041v-1H44.146v1Zm29.041 0h29.042v-1H73.187v1Zm29.042 0h29.041v-1h-29.041v1Zm29.041 0h29.041v-1H131.27v1Zm29.041 0h29.042v-1h-29.042v1Zm29.042 0h29.041v-1h-29.041v1Zm29.041 0h29.042v-1h-29.042v1Zm29.042 0h29.041v-1h-29.041v1Zm29.041 0h29.041v-1h-29.041v1Zm29.041 0h29.042v-1h-29.042v1Zm29.042 0h29.041v-1H334.56v1Zm29.041 0h29.041v-1h-29.041v1Zm29.041 0h29.042v-1h-29.042v1Zm29.042 0h29.041v-1h-29.041v1Zm29.041 0h29.042v-1h-29.042v1Zm29.042 0h29.041v-1h-29.041v1Zm29.041 0h29.041v-1h-29.041v1Zm29.041 0h29.042v-1h-29.042v1Zm29.042 0h29.041v-1h-29.041v1Zm29.041 0h29.041v-1h-29.041v1Zm29.041 0h29.042v-1h-29.042v1Zm29.042 0h26.019v-1h-26.019v1ZM-108 801.411h35.98v-1H-108v1Zm35.98 0h29.042v-1H-72.02v1Zm29.042 0h29.041v-1h-29.041v1Zm29.041 0h29.042v-1h-29.042v1Zm29.042 0h29.041v-1H15.105v1Zm29.041 0h29.041v-1H44.146v1Zm29.041 0h29.042v-1H73.187v1Zm29.042 0h29.041v-1h-29.041v1Zm29.041 0h29.041v-1H131.27v1Zm29.041 0h29.042v-1h-29.042v1Zm29.042 0h29.041v-1h-29.041v1Zm29.041 0h29.042v-1h-29.042v1Zm29.042 0h29.041v-1h-29.041v1Zm29.041 0h29.041v-1h-29.041v1Zm29.041 0h29.042v-1h-29.042v1Zm29.042 0h29.041v-1H334.56v1Zm29.041 0h29.041v-1h-29.041v1Zm29.041 0h29.042v-1h-29.042v1Zm29.042 0h29.041v-1h-29.041v1Zm29.041 0h29.042v-1h-29.042v1Zm29.042 0h29.041v-1h-29.041v1Zm29.041 0h29.041v-1h-29.041v1Zm29.041 0h29.042v-1h-29.042v1Zm29.042 0h29.041v-1h-29.041v1Zm29.041 0h29.041v-1h-29.041v1Zm29.041 0h29.042v-1h-29.042v1Zm29.042 0h26.019v-1h-26.019v1ZM-108 772.661h35.98v-1H-108v1Zm35.98 0h29.042v-1H-72.02v1Zm29.042 0h29.041v-1h-29.041v1Zm29.041 0h29.042v-1h-29.042v1Zm29.042 0h29.041v-1H15.105v1Zm29.041 0h29.041v-1H44.146v1Zm29.041 0h29.042v-1H73.187v1Zm29.042 0h29.041v-1h-29.041v1Zm29.041 0h29.041v-1H131.27v1Zm29.041 0h29.042v-1h-29.042v1Zm29.042 0h29.041v-1h-29.041v1Zm29.041 0h29.042v-1h-29.042v1Zm29.042 0h29.041v-1h-29.041v1Zm29.041 0h29.041v-1h-29.041v1Zm29.041 0h29.042v-1h-29.042v1Zm29.042 0h29.041v-1H334.56v1Zm29.041 0h29.041v-1h-29.041v1Zm29.041 0h29.042v-1h-29.042v1Zm29.042 0h29.041v-1h-29.041v1Zm29.041 0h29.042v-1h-29.042v1Zm29.042 0h29.041v-1h-29.041v1Zm29.041 0h29.041v-1h-29.041v1Zm29.041 0h29.042v-1h-29.042v1Zm29.042 0h29.041v-1h-29.041v1Zm29.041 0h29.041v-1h-29.041v1Zm29.041 0h29.042v-1h-29.042v1Zm29.042 0h26.019v-1h-26.019v1ZM-108 743.911h35.98v-1H-108v1Zm35.98 0h29.042v-1H-72.02v1Zm29.042 0h29.041v-1h-29.041v1Zm29.041 0h29.042v-1h-29.042v1Zm29.042 0h29.041v-1H15.105v1Zm29.041 0h29.041v-1H44.146v1Zm29.041 0h29.042v-1H73.187v1Zm29.042 0h29.041v-1h-29.041v1Zm29.041 0h29.041v-1H131.27v1Zm29.041 0h29.042v-1h-29.042v1Zm29.042 0h29.041v-1h-29.041v1Zm29.041 0h29.042v-1h-29.042v1Zm29.042 0h29.041v-1h-29.041v1Zm29.041 0h29.041v-1h-29.041v1Zm29.041 0h29.042v-1h-29.042v1Zm29.042 0h29.041v-1H334.56v1Zm29.041 0h29.041v-1h-29.041v1Zm29.041 0h29.042v-1h-29.042v1Zm29.042 0h29.041v-1h-29.041v1Zm29.041 0h29.042v-1h-29.042v1Zm29.042 0h29.041v-1h-29.041v1Zm29.041 0h29.041v-1h-29.041v1Zm29.041 0h29.042v-1h-29.042v1Zm29.042 0h29.041v-1h-29.041v1Zm29.041 0h29.041v-1h-29.041v1Zm29.041 0h29.042v-1h-29.042v1Zm29.042 0h26.019v-1h-26.019v1ZM-108 715.161h35.98v-1H-108v1Zm35.98 0h29.042v-1H-72.02v1Zm29.042 0h29.041v-1h-29.041v1Zm29.041 0h29.042v-1h-29.042v1Zm29.042 0h29.041v-1H15.105v1Zm29.041 0h29.041v-1H44.146v1Zm29.041 0h29.042v-1H73.187v1Zm29.042 0h29.041v-1h-29.041v1Zm29.041 0h29.041v-1H131.27v1Zm29.041 0h29.042v-1h-29.042v1Zm29.042 0h29.041v-1h-29.041v1Zm29.041 0h29.042v-1h-29.042v1Zm29.042 0h29.041v-1h-29.041v1Zm29.041 0h29.041v-1h-29.041v1Zm29.041 0h29.042v-1h-29.042v1Zm29.042 0h29.041v-1H334.56v1Zm29.041 0h29.041v-1h-29.041v1Zm29.041 0h29.042v-1h-29.042v1Zm29.042 0h29.041v-1h-29.041v1Zm29.041 0h29.042v-1h-29.042v1Zm29.042 0h29.041v-1h-29.041v1Zm29.041 0h29.041v-1h-29.041v1Zm29.041 0h29.042v-1h-29.042v1Zm29.042 0h29.041v-1h-29.041v1Zm29.041 0h29.041v-1h-29.041v1Zm29.041 0h29.042v-1h-29.042v1Zm29.042 0h26.019v-1h-26.019v1Zm28.541-29.25v28.75h1v-28.75h-1Zm0 28.75v28.75h1v-28.75h-1Zm0 28.75v28.75h1v-28.75h-1Zm0 28.75v28.75h1v-28.75h-1Zm0 28.75v28.75h1v-28.75h-1Zm0 28.75v28.75h1v-28.75h-1Zm0 28.75v28.75h1v-28.75h-1Zm0 28.75v28.75h1v-28.75h-1Zm29.041-201.25v28.75h1v-28.75h-1Zm0 28.75v28.75h1v-28.75h-1Zm0 28.75v28.75h1v-28.75h-1Zm0 28.75v28.75h1v-28.75h-1Zm0 28.75v28.75h1v-28.75h-1Zm0 28.75v28.75h1v-28.75h-1Zm0 28.75v28.75h1v-28.75h-1Zm0 28.75v28.75h1v-28.75h-1Zm29.042-201.25v28.75h1v-28.75h-1Zm0 28.75v28.75h1v-28.75h-1Zm0 28.75v28.75h1v-28.75h-1Zm0 28.75v28.75h1v-28.75h-1Zm0 28.75v28.75h1v-28.75h-1Zm0 28.75v28.75h1v-28.75h-1Zm0 28.75v28.75h1v-28.75h-1Zm0 28.75v28.75h1v-28.75h-1Zm29.041-201.25v28.75h1v-28.75h-1Zm0 28.75v28.75h1v-28.75h-1Zm0 28.75v28.75h1v-28.75h-1Zm0 28.75v28.75h1v-28.75h-1Zm0 28.75v28.75h1v-28.75h-1Zm0 28.75v28.75h1v-28.75h-1Zm0 28.75v28.75h1v-28.75h-1Zm0 28.75v28.75h1v-28.75h-1Zm29.042-201.25v28.75h1v-28.75h-1Zm0 28.75v28.75h1v-28.75h-1Zm0 28.75v28.75h1v-28.75h-1Zm0 28.75v28.75h1v-28.75h-1Zm0 28.75v28.75h1v-28.75h-1Zm0 28.75v28.75h1v-28.75h-1Zm0 28.75v28.75h1v-28.75h-1Zm0 28.75v28.75h1v-28.75h-1Zm29.041-201.25v28.75h1v-28.75h-1Zm0 28.75v28.75h1v-28.75h-1Zm0 28.75v28.75h1v-28.75h-1Zm0 28.75v28.75h1v-28.75h-1Zm0 28.75v28.75h1v-28.75h-1Zm0 28.75v28.75h1v-28.75h-1Zm0 28.75v28.75h1v-28.75h-1Zm0 28.75v28.75h1v-28.75h-1Zm29.041-201.25v28.75h1v-28.75h-1Zm0 28.75v28.75h1v-28.75h-1Zm0 28.75v28.75h1v-28.75h-1Zm0 28.75v28.75h1v-28.75h-1Zm0 28.75v28.75h1v-28.75h-1Zm0 28.75v28.75h1v-28.75h-1Zm0 28.75v28.75h1v-28.75h-1Zm0 28.75v28.75h1v-28.75h-1Zm29.042-201.25v28.75h1v-28.75h-1Zm0 28.75v28.75h1v-28.75h-1Zm0 28.75v28.75h1v-28.75h-1Zm0 28.75v28.75h1v-28.75h-1Zm0 28.75v28.75h1v-28.75h-1Zm0 28.75v28.75h1v-28.75h-1Zm0 28.75v28.75h1v-28.75h-1Zm0 28.75v28.75h1v-28.75h-1Zm29.041-201.25v28.75h1v-28.75h-1Zm0 28.75v28.75h1v-28.75h-1Zm0 28.75v28.75h1v-28.75h-1Zm0 28.75v28.75h1v-28.75h-1Zm0 28.75v28.75h1v-28.75h-1Zm0 28.75v28.75h1v-28.75h-1Zm0 28.75v28.75h1v-28.75h-1Zm0 28.75v28.75h1v-28.75h-1Zm29.041-201.25v28.75h1v-28.75h-1Zm0 28.75v28.75h1v-28.75h-1Zm0 28.75v28.75h1v-28.75h-1Zm0 28.75v28.75h1v-28.75h-1Zm0 28.75v28.75h1v-28.75h-1Zm0 28.75v28.75h1v-28.75h-1Zm0 28.75v28.75h1v-28.75h-1Zm0 28.75v28.75h1v-28.75h-1Zm29.042-201.25v28.75h1v-28.75h-1Zm0 28.75v28.75h1v-28.75h-1Zm0 28.75v28.75h1v-28.75h-1Zm0 28.75v28.75h1v-28.75h-1Zm0 28.75v28.75h1v-28.75h-1Zm0 28.75v28.75h1v-28.75h-1Zm0 28.75v28.75h1v-28.75h-1Zm0 28.75v28.75h1v-28.75h-1Zm29.04-201.25v28.75h1v-28.75h-1Zm0 28.75v28.75h1v-28.75h-1Zm0 28.75v28.75h1v-28.75h-1Zm0 28.75v28.75h1v-28.75h-1Zm0 28.75v28.75h1v-28.75h-1Zm0 28.75v28.75h1v-28.75h-1Zm0 28.75v28.75h1v-28.75h-1Zm0 28.75v28.75h1v-28.75h-1Zm29.04-201.25v28.75h1v-28.75h-1Zm0 28.75v28.75h1v-28.75h-1Zm0 28.75v28.75h1v-28.75h-1Zm0 28.75v28.75h1v-28.75h-1Zm0 28.75v28.75h1v-28.75h-1Zm0 28.75v28.75h1v-28.75h-1Zm0 28.75v28.75h1v-28.75h-1Zm0 28.75v28.75h1v-28.75h-1Zm29.04-201.25v28.75h1v-28.75h-1Zm0 28.75v28.75h1v-28.75h-1Zm0 28.75v28.75h1v-28.75h-1Zm0 28.75v28.75h1v-28.75h-1Zm0 28.75v28.75h1v-28.75h-1Zm0 28.75v28.75h1v-28.75h-1Zm0 28.75v28.75h1v-28.75h-1Zm0 28.75v28.75h1v-28.75h-1Zm29.05-201.25v28.75h1v-28.75h-1Zm0 28.75v28.75h1v-28.75h-1Zm0 28.75v28.75h1v-28.75h-1Zm0 28.75v28.75h1v-28.75h-1Zm0 28.75v28.75h1v-28.75h-1Zm0 28.75v28.75h1v-28.75h-1Zm0 28.75v28.75h1v-28.75h-1Zm0 28.75v28.75h1v-28.75h-1Zm29.04-201.25v28.75h1v-28.75h-1Zm0 28.75v28.75h1v-28.75h-1Zm0 28.75v28.75h1v-28.75h-1Zm0 28.75v28.75h1v-28.75h-1Zm0 28.75v28.75h1v-28.75h-1Zm0 28.75v28.75h1v-28.75h-1Zm0 28.75v28.75h1v-28.75h-1Zm0 28.75v28.75h1v-28.75h-1Zm29.04-201.25v28.75h1v-28.75h-1Zm0 28.75v28.75h1v-28.75h-1Zm0 28.75v28.75h1v-28.75h-1Zm0 28.75v28.75h1v-28.75h-1Zm0 28.75v28.75h1v-28.75h-1Zm0 28.75v28.75h1v-28.75h-1Zm0 28.75v28.75h1v-28.75h-1Zm0 28.75v28.75h1v-28.75h-1Zm29.04-201.25v28.75h1v-28.75h-1Zm0 28.75v28.75h1v-28.75h-1Zm0 28.75v28.75h1v-28.75h-1Zm0 28.75v28.75h1v-28.75h-1Zm0 28.75v28.75h1v-28.75h-1Zm0 28.75v28.75h1v-28.75h-1Zm0 28.75v28.75h1v-28.75h-1Zm0 28.75v28.75h1v-28.75h-1Zm29.04-201.25v28.75h1v-28.75h-1Zm0 28.75v28.75h1v-28.75h-1Zm0 28.75v28.75h1v-28.75h-1Zm0 28.75v28.75h1v-28.75h-1Zm0 28.75v28.75h1v-28.75h-1Zm0 28.75v28.75h1v-28.75h-1Zm0 28.75v28.75h1v-28.75h-1Zm0 28.75v28.75h1v-28.75h-1Zm29.04-201.25v28.75h1v-28.75h-1Zm0 28.75v28.75h1v-28.75h-1Zm0 28.75v28.75h1v-28.75h-1Zm0 28.75v28.75h1v-28.75h-1Zm0 28.75v28.75h1v-28.75h-1Zm0 28.75v28.75h1v-28.75h-1Zm0 28.75v28.75h1v-28.75h-1Zm0 28.75v28.75h1v-28.75h-1Zm29.04-201.25v28.75h1v-28.75h-1Zm0 28.75v28.75h1v-28.75h-1Zm0 28.75v28.75h1v-28.75h-1Zm0 28.75v28.75h1v-28.75h-1Zm0 28.75v28.75h1v-28.75h-1Zm0 28.75v28.75h1v-28.75h-1Zm0 28.75v28.75h1v-28.75h-1Zm0 28.75v28.75h1v-28.75h-1Zm29.05-201.25v28.75h1v-28.75h-1Zm0 28.75v28.75h1v-28.75h-1Zm0 28.75v28.75h1v-28.75h-1Zm0 28.75v28.75h1v-28.75h-1Zm0 28.75v28.75h1v-28.75h-1Zm0 28.75v28.75h1v-28.75h-1Zm0 28.75v28.75h1v-28.75h-1Zm0 28.75v28.75h1v-28.75h-1Zm29.04-201.25v28.75h1v-28.75h-1Zm0 28.75v28.75h1v-28.75h-1Zm0 28.75v28.75h1v-28.75h-1Zm0 28.75v28.75h1v-28.75h-1Zm0 28.75v28.75h1v-28.75h-1Zm0 28.75v28.75h1v-28.75h-1Zm0 28.75v28.75h1v-28.75h-1Zm0 28.75v28.75h1v-28.75h-1Zm29.04-201.25v28.75h1v-28.75h-1Zm0 28.75v28.75h1v-28.75h-1Zm0 28.75v28.75h1v-28.75h-1Zm0 28.75v28.75h1v-28.75h-1Zm0 28.75v28.75h1v-28.75h-1Zm0 28.75v28.75h1v-28.75h-1Zm0 28.75v28.75h1v-28.75h-1Zm0 28.75v28.75h1v-28.75h-1ZM619 916.411h35.015v-1H619v1Zm761.05 0h26.98v-1h-26.98v1ZM619 887.661h35.015v-1H619v1Zm35.015 0h29.041v-1h-29.041v1Zm29.041 0h29.041v-1h-29.041v1Zm29.041 0h29.042v-1h-29.042v1Zm29.042 0h29.041v-1h-29.041v1Zm29.041 0h29.042v-1H770.18v1Zm29.042 0h29.041v-1h-29.041v1Zm29.041 0h29.041v-1h-29.041v1Zm29.041 0h29.042v-1h-29.042v1Zm29.042 0h29.041v-1h-29.041v1Zm29.041 0h29.041v-1h-29.041v1Zm29.041 0h29.042v-1h-29.042v1Zm29.042 0h29.04v-1h-29.04v1Zm29.04 0h29.04v-1h-29.04v1Zm29.04 0h29.04v-1h-29.04v1Zm29.04 0h29.05v-1h-29.05v1Zm29.05 0h29.04v-1h-29.04v1Zm29.04 0h29.04v-1h-29.04v1Zm29.04 0h29.04v-1h-29.04v1Zm29.04 0h29.04v-1h-29.04v1Zm29.04 0h29.04v-1h-29.04v1Zm29.04 0h29.04v-1h-29.04v1Zm29.04 0h29.05v-1h-29.05v1Zm29.05 0h29.04v-1h-29.04v1Zm29.04 0h29.04v-1h-29.04v1Zm29.04 0h29.04v-1h-29.04v1Zm29.04 0h26.98v-1h-26.98v1ZM619 858.911h35.015v-1H619v1Zm35.015 0h29.041v-1h-29.041v1Zm29.041 0h29.041v-1h-29.041v1Zm29.041 0h29.042v-1h-29.042v1Zm29.042 0h29.041v-1h-29.041v1Zm29.041 0h29.042v-1H770.18v1Zm29.042 0h29.041v-1h-29.041v1Zm29.041 0h29.041v-1h-29.041v1Zm29.041 0h29.042v-1h-29.042v1Zm29.042 0h29.041v-1h-29.041v1Zm29.041 0h29.041v-1h-29.041v1Zm29.041 0h29.042v-1h-29.042v1Zm29.042 0h29.04v-1h-29.04v1Zm29.04 0h29.04v-1h-29.04v1Zm29.04 0h29.04v-1h-29.04v1Zm29.04 0h29.05v-1h-29.05v1Zm29.05 0h29.04v-1h-29.04v1Zm29.04 0h29.04v-1h-29.04v1Zm29.04 0h29.04v-1h-29.04v1Zm29.04 0h29.04v-1h-29.04v1Zm29.04 0h29.04v-1h-29.04v1Zm29.04 0h29.04v-1h-29.04v1Zm29.04 0h29.05v-1h-29.05v1Zm29.05 0h29.04v-1h-29.04v1Zm29.04 0h29.04v-1h-29.04v1Zm29.04 0h29.04v-1h-29.04v1Zm29.04 0h26.98v-1h-26.98v1ZM619 830.161h35.015v-1H619v1Zm35.015 0h29.041v-1h-29.041v1Zm29.041 0h29.041v-1h-29.041v1Zm29.041 0h29.042v-1h-29.042v1Zm29.042 0h29.041v-1h-29.041v1Zm29.041 0h29.042v-1H770.18v1Zm29.042 0h29.041v-1h-29.041v1Zm29.041 0h29.041v-1h-29.041v1Zm29.041 0h29.042v-1h-29.042v1Zm29.042 0h29.041v-1h-29.041v1Zm29.041 0h29.041v-1h-29.041v1Zm29.041 0h29.042v-1h-29.042v1Zm29.042 0h29.04v-1h-29.04v1Zm29.04 0h29.04v-1h-29.04v1Zm29.04 0h29.04v-1h-29.04v1Zm29.04 0h29.05v-1h-29.05v1Zm29.05 0h29.04v-1h-29.04v1Zm29.04 0h29.04v-1h-29.04v1Zm29.04 0h29.04v-1h-29.04v1Zm29.04 0h29.04v-1h-29.04v1Zm29.04 0h29.04v-1h-29.04v1Zm29.04 0h29.04v-1h-29.04v1Zm29.04 0h29.05v-1h-29.05v1Zm29.05 0h29.04v-1h-29.04v1Zm29.04 0h29.04v-1h-29.04v1Zm29.04 0h29.04v-1h-29.04v1Zm29.04 0h26.98v-1h-26.98v1ZM619 801.411h35.015v-1H619v1Zm35.015 0h29.041v-1h-29.041v1Zm29.041 0h29.041v-1h-29.041v1Zm29.041 0h29.042v-1h-29.042v1Zm29.042 0h29.041v-1h-29.041v1Zm29.041 0h29.042v-1H770.18v1Zm29.042 0h29.041v-1h-29.041v1Zm29.041 0h29.041v-1h-29.041v1Zm29.041 0h29.042v-1h-29.042v1Zm29.042 0h29.041v-1h-29.041v1Zm29.041 0h29.041v-1h-29.041v1Zm29.041 0h29.042v-1h-29.042v1Zm29.042 0h29.04v-1h-29.04v1Zm29.04 0h29.04v-1h-29.04v1Zm29.04 0h29.04v-1h-29.04v1Zm29.04 0h29.05v-1h-29.05v1Zm29.05 0h29.04v-1h-29.04v1Zm29.04 0h29.04v-1h-29.04v1Zm29.04 0h29.04v-1h-29.04v1Zm29.04 0h29.04v-1h-29.04v1Zm29.04 0h29.04v-1h-29.04v1Zm29.04 0h29.04v-1h-29.04v1Zm29.04 0h29.05v-1h-29.05v1Zm29.05 0h29.04v-1h-29.04v1Zm29.04 0h29.04v-1h-29.04v1Zm29.04 0h29.04v-1h-29.04v1Zm29.04 0h26.98v-1h-26.98v1ZM619 772.661h35.015v-1H619v1Zm35.015 0h29.041v-1h-29.041v1Zm29.041 0h29.041v-1h-29.041v1Zm29.041 0h29.042v-1h-29.042v1Zm29.042 0h29.041v-1h-29.041v1Zm29.041 0h29.042v-1H770.18v1Zm29.042 0h29.041v-1h-29.041v1Zm29.041 0h29.041v-1h-29.041v1Zm29.041 0h29.042v-1h-29.042v1Zm29.042 0h29.041v-1h-29.041v1Zm29.041 0h29.041v-1h-29.041v1Zm29.041 0h29.042v-1h-29.042v1Zm29.042 0h29.04v-1h-29.04v1Zm29.04 0h29.04v-1h-29.04v1Zm29.04 0h29.04v-1h-29.04v1Zm29.04 0h29.05v-1h-29.05v1Zm29.05 0h29.04v-1h-29.04v1Zm29.04 0h29.04v-1h-29.04v1Zm29.04 0h29.04v-1h-29.04v1Zm29.04 0h29.04v-1h-29.04v1Zm29.04 0h29.04v-1h-29.04v1Zm29.04 0h29.04v-1h-29.04v1Zm29.04 0h29.05v-1h-29.05v1Zm29.05 0h29.04v-1h-29.04v1Zm29.04 0h29.04v-1h-29.04v1Zm29.04 0h29.04v-1h-29.04v1Zm29.04 0h26.98v-1h-26.98v1ZM619 743.911h35.015v-1H619v1Zm35.015 0h29.041v-1h-29.041v1Zm29.041 0h29.041v-1h-29.041v1Zm29.041 0h29.042v-1h-29.042v1Zm29.042 0h29.041v-1h-29.041v1Zm29.041 0h29.042v-1H770.18v1Zm29.042 0h29.041v-1h-29.041v1Zm29.041 0h29.041v-1h-29.041v1Zm29.041 0h29.042v-1h-29.042v1Zm29.042 0h29.041v-1h-29.041v1Zm29.041 0h29.041v-1h-29.041v1Zm29.041 0h29.042v-1h-29.042v1Zm29.042 0h29.04v-1h-29.04v1Zm29.04 0h29.04v-1h-29.04v1Zm29.04 0h29.04v-1h-29.04v1Zm29.04 0h29.05v-1h-29.05v1Zm29.05 0h29.04v-1h-29.04v1Zm29.04 0h29.04v-1h-29.04v1Zm29.04 0h29.04v-1h-29.04v1Zm29.04 0h29.04v-1h-29.04v1Zm29.04 0h29.04v-1h-29.04v1Zm29.04 0h29.04v-1h-29.04v1Zm29.04 0h29.05v-1h-29.05v1Zm29.05 0h29.04v-1h-29.04v1Zm29.04 0h29.04v-1h-29.04v1Zm29.04 0h29.04v-1h-29.04v1Zm29.04 0h26.98v-1h-26.98v1ZM619 715.161h35.015v-1H619v1Zm35.015 0h29.041v-1h-29.041v1Zm29.041 0h29.041v-1h-29.041v1Zm29.041 0h29.042v-1h-29.042v1Zm29.042 0h29.041v-1h-29.041v1Zm29.041 0h29.042v-1H770.18v1Zm29.042 0h29.041v-1h-29.041v1Zm29.041 0h29.041v-1h-29.041v1Zm29.041 0h29.042v-1h-29.042v1Zm29.042 0h29.041v-1h-29.041v1Zm29.041 0h29.041v-1h-29.041v1Zm29.041 0h29.042v-1h-29.042v1Zm29.042 0h29.04v-1h-29.04v1Zm29.04 0h29.04v-1h-29.04v1Zm29.04 0h29.04v-1h-29.04v1Zm29.04 0h29.05v-1h-29.05v1Zm29.05 0h29.04v-1h-29.04v1Zm29.04 0h29.04v-1h-29.04v1Zm29.04 0h29.04v-1h-29.04v1Zm29.04 0h29.04v-1h-29.04v1Zm29.04 0h29.04v-1h-29.04v1Zm29.04 0h29.04v-1h-29.04v1Zm29.04 0h29.05v-1h-29.05v1Zm29.05 0h29.04v-1h-29.04v1Zm29.04 0h29.04v-1h-29.04v1Zm29.04 0h29.04v-1h-29.04v1Zm29.04 0h26.98v-1h-26.98v1ZM-72.02 0v-1h-1v1h1Zm1452.07 0h1v-1h-1v1ZM-72.02 915.911h-1v1h1v-1Zm1452.07 0v1h1v-1h-1ZM-71.02 228.978v-28.622h-2v28.622h2Zm0-28.622v-28.623h-2v28.623h2Zm0-28.623v-28.622h-2v28.622h2Zm0-28.622v-28.622h-2v28.622h2Zm0-28.622V85.867h-2v28.622h2Zm0-28.622V57.244h-2v28.623h2Zm0-28.623V28.622h-2v28.622h2Zm0-28.622V0h-2v28.622h2ZM-72.02 1h29.042v-2H-72.02v2Zm29.042 0h29.041v-2h-29.041v2Zm29.041 0h29.042v-2h-29.042v2Zm29.042 0h29.041v-2H15.105v2Zm29.041 0h29.041v-2H44.146v2Zm29.041 0h29.042v-2H73.187v2Zm29.042 0h29.041v-2h-29.041v2Zm29.041 0h29.041v-2H131.27v2Zm29.041 0h29.042v-2h-29.042v2Zm29.042 0h29.041v-2h-29.041v2Zm29.041 0h29.042v-2h-29.042v2Zm29.042 0h29.041v-2h-29.041v2Zm29.041 0h29.041v-2h-29.041v2Zm29.041 0h29.042v-2h-29.042v2Zm29.042 0h29.041v-2H334.56v2Zm29.041 0h29.041v-2h-29.041v2Zm29.041 0h29.042v-2h-29.042v2Zm29.042 0h29.041v-2h-29.041v2Zm29.041 0h29.042v-2h-29.042v2Zm29.042 0h29.041v-2h-29.041v2Zm29.041 0h29.041v-2h-29.041v2Zm29.041 0h29.042v-2h-29.042v2Zm29.042 0h29.041v-2h-29.041v2Zm29.041 0h29.041v-2h-29.041v2Zm29.041 0h29.042v-2h-29.042v2Zm756.077 227.978v-28.622h-2v28.622h2Zm0-28.622v-28.623h-2v28.623h2Zm0-28.623v-28.622h-2v28.622h2Zm0-28.622v-28.622h-2v28.622h2Zm0-28.622V85.867h-2v28.622h2Zm0-28.622V57.244h-2v28.623h2Zm0-28.623V28.622h-2v28.622h2Zm0-28.622V0h-2v28.622h2ZM654.015 1h29.041v-2h-29.041v2Zm29.041 0h29.041v-2h-29.041v2Zm29.041 0h29.042v-2h-29.042v2Zm29.042 0h29.041v-2h-29.041v2Zm29.041 0h29.042v-2H770.18v2Zm29.042 0h29.041v-2h-29.041v2Zm29.041 0h29.041v-2h-29.041v2Zm29.041 0h29.042v-2h-29.042v2Zm29.042 0h29.041v-2h-29.041v2Zm29.041 0h29.041v-2h-29.041v2Zm29.041 0h29.042v-2h-29.042v2Zm29.042 0h29.04v-2h-29.04v2Zm29.04 0h29.04v-2h-29.04v2Zm29.04 0h29.04v-2h-29.04v2Zm29.04 0h29.05v-2h-29.05v2Zm29.05 0h29.04v-2h-29.04v2Zm29.04 0h29.04v-2h-29.04v2Zm29.04 0h29.04v-2h-29.04v2Zm29.04 0h29.04v-2h-29.04v2Zm29.04 0h29.04v-2h-29.04v2Zm29.04 0h29.04v-2h-29.04v2Zm29.04 0h29.05v-2h-29.05v2Zm29.05 0h29.04v-2h-29.04v2Zm29.04 0h29.04v-2h-29.04v2Zm29.04 0h29.04v-2h-29.04v2ZM-71.02 685.911v-28.622h-2v28.622h2Zm0-28.622v-28.622h-2v28.622h2Zm0-28.622v-28.623h-2v28.623h2Zm0-28.623v-28.622h-2v28.622h2Zm0-28.622V542.8h-2v28.622h2Zm0-28.622v-28.622h-2V542.8h2Zm0-28.622v-28.622h-2v28.622h2Zm0-28.622v-27.6h-2v27.6h2Zm1452.07 200.355v-28.622h-2v28.622h2Zm0-28.622v-28.622h-2v28.622h2Zm0-28.622v-28.623h-2v28.623h2Zm0-28.623v-28.622h-2v28.622h2Zm0-28.622V542.8h-2v28.622h2Zm0-28.622v-28.622h-2V542.8h2Zm0-28.622v-28.622h-2v28.622h2Zm0-28.622v-27.6h-2v27.6h2ZM-73.02 228.978v28.75h2v-28.75h-2Zm0 28.75v28.75h2v-28.75h-2Zm0 28.75v28.75h2v-28.75h-2Zm0 28.75v28.75h2v-28.75h-2Zm0 28.75v28.75h2v-28.75h-2Zm0 28.75v28.75h2v-28.75h-2Zm0 28.75v28.75h2v-28.75h-2Zm0 28.75v27.728h2v-27.728h-2Zm1452.07-201.25v28.75h2v-28.75h-2Zm0 28.75v28.75h2v-28.75h-2Zm0 28.75v28.75h2v-28.75h-2Zm0 28.75v28.75h2v-28.75h-2Zm0 28.75v28.75h2v-28.75h-2Zm0 28.75v28.75h2v-28.75h-2Zm0 28.75v28.75h2v-28.75h-2Zm0 28.75v27.728h2v-27.728h-2ZM-73.02 685.911v28.75h2v-28.75h-2Zm0 28.75v28.75h2v-28.75h-2Zm0 28.75v28.75h2v-28.75h-2Zm0 28.75v28.75h2v-28.75h-2Zm0 28.75v28.75h2v-28.75h-2Zm0 28.75v28.75h2v-28.75h-2Zm0 28.75v28.75h2v-28.75h-2Zm0 28.75v28.75h2v-28.75h-2Zm1 29.75h29.042v-2H-72.02v2Zm29.042 0h29.041v-2h-29.041v2Zm29.041 0h29.042v-2h-29.042v2Zm29.042 0h29.041v-2H15.105v2Zm29.041 0h29.041v-2H44.146v2Zm29.041 0h29.042v-2H73.187v2Zm29.042 0h29.041v-2h-29.041v2Zm29.041 0h29.041v-2H131.27v2Zm29.041 0h29.042v-2h-29.042v2Zm29.042 0h29.041v-2h-29.041v2Zm29.041 0h29.042v-2h-29.042v2Zm29.042 0h29.041v-2h-29.041v2Zm29.041 0h29.041v-2h-29.041v2Zm29.041 0h29.042v-2h-29.042v2Zm29.042 0h29.041v-2H334.56v2Zm29.041 0h29.041v-2h-29.041v2Zm29.041 0h29.042v-2h-29.042v2Zm29.042 0h29.041v-2h-29.041v2Zm29.041 0h29.042v-2h-29.042v2Zm29.042 0h29.041v-2h-29.041v2Zm29.041 0h29.041v-2h-29.041v2Zm29.041 0h29.042v-2h-29.042v2Zm29.042 0h29.041v-2h-29.041v2Zm29.041 0h29.041v-2h-29.041v2Zm29.041 0h29.042v-2h-29.042v2Zm754.077-231v28.75h2v-28.75h-2Zm0 28.75v28.75h2v-28.75h-2Zm0 28.75v28.75h2v-28.75h-2Zm0 28.75v28.75h2v-28.75h-2Zm0 28.75v28.75h2v-28.75h-2Zm0 28.75v28.75h2v-28.75h-2Zm0 28.75v28.75h2v-28.75h-2Zm0 28.75v28.75h2v-28.75h-2Zm-725.035 29.75h29.041v-2h-29.041v2Zm29.041 0h29.041v-2h-29.041v2Zm29.041 0h29.042v-2h-29.042v2Zm29.042 0h29.041v-2h-29.041v2Zm29.041 0h29.042v-2H770.18v2Zm29.042 0h29.041v-2h-29.041v2Zm29.041 0h29.041v-2h-29.041v2Zm29.041 0h29.042v-2h-29.042v2Zm29.042 0h29.041v-2h-29.041v2Zm29.041 0h29.041v-2h-29.041v2Zm29.041 0h29.042v-2h-29.042v2Zm29.042 0h29.04v-2h-29.04v2Zm29.04 0h29.04v-2h-29.04v2Zm29.04 0h29.04v-2h-29.04v2Zm29.04 0h29.05v-2h-29.05v2Zm29.05 0h29.04v-2h-29.04v2Zm29.04 0h29.04v-2h-29.04v2Zm29.04 0h29.04v-2h-29.04v2Zm29.04 0h29.04v-2h-29.04v2Zm29.04 0h29.04v-2h-29.04v2Zm29.04 0h29.04v-2h-29.04v2Zm29.04 0h29.05v-2h-29.05v2Zm29.05 0h29.04v-2h-29.04v2Zm29.04 0h29.04v-2h-29.04v2Zm29.04 0h29.04v-2h-29.04v2Z" fill="url(#a)" mask="url(#b)"/><defs><radialGradient id="a" cx="0" cy="0" r="1" gradientUnits="userSpaceOnUse" gradientTransform="matrix(0 -616.4 594.051 0 668.5 529)"><stop stop-color="#313145"/><stop offset="1" stop-color="#26203B" stop-opacity="0"/></radialGradient></defs></svg>